<?xml version="1.0" standalone="no"?>
<!DOCTYPE svg PUBLIC "-//W3C//DTD SVG 20010904//EN"
 "http://www.w3.org/TR/2001/REC-SVG-20010904/DTD/svg10.dtd">
<svg version="1.0" xmlns="http://www.w3.org/2000/svg"
 width="529.000000pt" height="472.000000pt" viewBox="0 0 529.000000 472.000000"
 preserveAspectRatio="xMidYMid meet">

<g transform="translate(0.000000,472.000000) scale(0.100000,-0.100000)"
fill="#000000" stroke="none">
<path d="M4660 4691 c14 -11 28 -21 32 -21 15 0 68 -96 68 -122 0 -15 -3 -28
-6 -28 -3 0 -37 10 -76 21 -57 18 -87 21 -157 16 -134 -8 -190 -33 -285 -131
-106 -108 -130 -160 -134 -286 -1 -52 1 -115 6 -140 l9 -45 11 35 c9 32 10 29
11 -40 1 -72 31 -225 51 -259 15 -25 12 141 -4 261 -7 57 -14 116 -14 133 0
30 44 100 87 139 19 17 19 15 -3 -31 -14 -27 -36 -57 -50 -67 -14 -9 -26 -21
-26 -27 0 -7 6 -6 17 2 15 13 16 11 10 -21 l-7 -35 23 29 c17 20 29 27 41 23
13 -5 16 -3 12 11 -4 12 4 28 24 47 16 16 30 25 30 19 0 -5 5 -1 11 9 6 9 15
15 20 11 5 -3 8 -1 7 6 -2 6 18 26 44 46 l47 35 -21 -43 c-11 -23 -48 -71 -82
-106 l-61 -64 52 20 c90 34 253 165 253 204 0 6 3 9 6 6 3 -4 -2 -21 -11 -40
l-16 -33 20 25 20 25 11 -30 c7 -17 18 -49 25 -73 l13 -43 -35 23 c-24 14 -53
22 -84 22 -40 1 -53 -4 -78 -28 -36 -35 -34 -45 5 -20 38 25 120 24 164 -2 32
-19 36 -26 52 -105 10 -46 21 -111 25 -144 l7 -60 16 100 16 100 7 -55 c9 -74
8 -157 -2 -203 -8 -31 -7 -36 5 -27 7 7 16 20 19 31 5 16 9 17 26 6 17 -10 23
-9 35 8 13 18 13 22 -5 36 -17 14 -19 22 -11 50 6 19 10 64 10 101 0 59 2 68
18 68 24 0 62 -28 62 -46 0 -28 19 -13 26 21 3 19 9 35 13 35 4 0 18 -23 30
-51 21 -46 69 -104 79 -94 2 2 -3 14 -12 27 -18 25 -21 83 -6 93 15 9 41 -14
56 -51 10 -24 11 -46 4 -90 -5 -32 -8 -59 -6 -61 2 -2 14 17 27 44 16 34 23
65 23 110 l0 63 31 -30 c17 -16 41 -30 53 -30 21 0 20 3 -12 30 -46 41 -61 86
-46 139 38 141 -19 356 -111 422 -34 24 -99 30 -154 16 l-30 -8 23 20 c13 12
42 26 64 33 34 10 45 9 90 -10 47 -20 49 -20 33 -2 -9 10 -38 26 -63 34 -87
30 -176 14 -203 -35 -11 -21 -12 -20 -40 14 -39 48 -76 73 -119 81 l-35 7 25
-20z m-182 -296 c-3 -3 -29 -12 -59 -19 -30 -8 -63 -18 -73 -22 -14 -5 -17 -4
-11 5 6 10 2 11 -16 6 -38 -12 -15 5 28 20 36 13 142 21 131 10z m-193 -45
c-3 -5 -12 -10 -18 -10 -7 0 -6 4 3 10 19 12 23 12 15 0z m215 -16 c-19 -9
-44 -17 -55 -18 -11 -2 -30 -8 -43 -15 -12 -6 -22 -9 -22 -6 0 11 104 54 130
54 22 0 21 -1 -10 -15z m225 -36 c22 -23 33 -37 24 -30 -9 6 -19 10 -22 7 -4
-3 -5 -2 -3 1 3 3 -6 17 -20 31 -22 22 -29 33 -21 33 2 0 21 -19 42 -42z m-56
-38 c0 -9 -6 -4 -14 10 -19 33 -19 49 0 24 8 -10 14 -26 14 -34z"/>
<path d="M4470 4040 c0 -18 -3 -21 -9 -12 -6 11 -9 9 -13 -6 -8 -31 5 -46 30
-33 30 16 32 14 20 -19 -15 -46 10 -80 60 -79 20 0 31 3 25 6 -16 6 -17 39 -1
49 6 4 18 -2 26 -12 13 -17 14 -15 9 24 l-5 42 27 -19 c23 -17 28 -17 28 -5 0
18 -59 60 -97 69 -14 3 -38 2 -53 -4 -21 -8 -28 -7 -36 7 -9 15 -10 13 -11 -8z
m70 -64 c0 -3 -4 -8 -10 -11 -5 -3 -10 -1 -10 4 0 6 5 11 10 11 6 0 10 -2 10
-4z"/>
<path d="M4201 4017 c-14 -14 -14 -50 -1 -42 6 4 10 -5 10 -20 0 -42 17 -65
48 -64 15 0 21 3 15 6 -7 2 -13 14 -13 25 0 14 5 18 15 14 20 -7 20 32 0 61
-17 24 -59 35 -74 20z"/>
<path d="M4490 3718 c-14 -5 -60 -8 -103 -5 -74 5 -78 4 -63 -12 9 -10 16 -22
16 -28 0 -6 9 -13 20 -16 11 -3 20 -1 20 4 0 5 10 9 23 9 23 0 127 45 127 55
0 7 -11 5 -40 -7z"/>
<path d="M4684 3658 c-5 -7 -3 -8 6 -3 9 6 11 4 6 -4 -5 -7 -13 -10 -20 -8 -7
3 -23 -4 -37 -14 l-24 -19 32 5 c20 3 37 0 46 -9 12 -12 14 -9 15 25 2 38 -10
51 -24 27z"/>
<path d="M4456 3459 c-15 -17 -33 -44 -42 -60 -8 -16 -24 -31 -37 -33 -142
-27 -134 -23 -145 -69 -12 -45 -78 -357 -95 -446 -10 -51 -10 -55 15 -76 33
-28 68 -122 68 -183 0 -76 7 -89 53 -101 33 -8 61 -29 127 -97 53 -54 77 -84
63 -80 -12 4 -98 -3 -190 -15 -92 -11 -186 -18 -208 -15 -22 3 -75 12 -118 20
-82 15 -124 10 -162 -20 -25 -19 -17 -25 76 -54 65 -21 70 -21 137 -6 105 24
222 -1 285 -61 34 -33 35 -56 3 -71 -14 -6 -33 -23 -43 -38 l-17 -27 -176 7
c-96 4 -218 11 -270 15 -69 6 -103 5 -125 -4 -33 -13 -86 -69 -110 -115 l-16
-31 55 -25 c30 -14 57 -33 60 -42 10 -33 27 -144 23 -148 -8 -9 -98 29 -106
45 -4 9 -16 50 -26 91 -16 69 -37 106 -55 95 -4 -3 3 -46 15 -97 12 -51 59
-253 104 -448 45 -195 88 -369 96 -386 24 -56 161 -107 322 -122 l78 -7 17
-130 c9 -71 17 -131 17 -132 1 -2 23 -14 50 -27 27 -14 56 -32 64 -41 24 -24
123 -46 232 -52 128 -7 266 16 350 57 33 16 85 40 116 54 l57 24 10 63 c6 35
20 132 31 214 65 476 68 687 12 908 -14 54 -16 76 -8 89 9 14 4 40 -22 120
-18 57 -36 106 -40 110 -6 7 -186 -123 -209 -151 -6 -9 -32 -45 -56 -81 -51
-75 -141 -167 -188 -192 -39 -21 -158 -24 -158 -3 0 9 -12 11 -45 7 -36 -4
-45 -2 -43 9 2 8 -4 13 -14 13 -22 -2 -22 5 -3 30 19 25 19 36 1 36 -19 0 -52
-33 -38 -38 5 -1 8 -12 5 -22 -4 -15 -14 -20 -39 -20 -32 0 -34 2 -34 35 0 31
3 35 25 35 23 0 48 16 159 101 46 36 86 98 86 136 0 33 0 33 -47 33 l-48 1 32
27 c17 15 70 42 118 61 102 40 141 70 167 128 31 71 93 85 143 33 l28 -29 51
44 51 43 -3 74 c-7 130 -5 162 7 200 l12 38 73 -7 c105 -8 157 2 209 42 l44
34 -29 103 c-24 86 -50 215 -83 406 -8 44 -31 56 -195 106 l-141 42 -24 52
c-20 43 -29 52 -50 52 -27 0 -31 -10 -15 -40 11 -20 -4 -35 -80 -83 -38 -24
-51 -68 -31 -105 8 -16 3 -25 -28 -56 -20 -20 -52 -41 -70 -46 -28 -8 -36 -6
-57 15 -31 31 -30 39 6 100 30 50 39 108 20 120 -7 4 -8 24 -4 51 3 24 4 44 1
44 -3 0 -17 -14 -31 -31z m184 -274 c0 -20 -7 -42 -17 -52 -10 -10 -18 -22
-18 -28 0 -5 -17 -40 -38 -76 -47 -84 -81 -166 -106 -260 -21 -81 -23 -79 -46
29 -20 96 -19 231 1 322 16 67 18 71 29 50 7 -13 11 -30 9 -39 -2 -9 3 -25 11
-35 12 -16 20 -18 42 -10 15 5 29 18 31 29 3 15 86 102 100 105 1 0 2 -16 2
-35z m-900 -1365 c30 -8 60 -18 66 -24 6 -6 14 -44 17 -84 5 -65 4 -72 -11
-68 -9 3 -35 8 -57 12 -63 11 -72 19 -79 75 -4 29 -10 65 -13 82 -5 24 -3 29
8 25 8 -3 39 -11 69 -18z m183 -36 l57 -6 0 -76 0 -75 -66 6 c-36 2 -67 6 -69
8 -1 2 -6 39 -10 83 -7 73 -6 78 11 73 11 -3 45 -9 77 -13z m195 -14 c18 0 22
-6 22 -30 0 -27 -3 -30 -31 -30 -34 0 -99 -34 -100 -53 -2 -32 -18 34 -18 77
l-1 49 53 -7 c28 -3 62 -6 75 -6z m-430 -178 c6 -36 9 -68 7 -70 -7 -7 -76 22
-89 38 -13 15 -36 94 -36 123 0 12 9 11 53 -5 l53 -19 12 -67z m84 47 c54 -11
56 -13 62 -48 3 -20 6 -53 6 -74 0 -32 -3 -37 -17 -33 -10 2 -34 8 -53 11 -49
10 -57 19 -64 73 -4 26 -9 55 -12 65 -6 20 3 21 78 6z m166 -25 c26 -5 30 -10
30 -39 0 -18 3 -42 6 -53 6 -18 1 -21 -49 -27 -31 -4 -59 -5 -62 -1 -4 4 -9
33 -11 66 l-4 60 30 0 c16 0 43 -3 60 -6z m-268 -106 c40 -19 42 -22 21 -26
-35 -6 -69 6 -81 28 -14 27 2 26 60 -2z m83 -25 c-7 -2 -19 -2 -25 0 -7 3 -2
5 12 5 14 0 19 -2 13 -5z m913 -26 c3 -2 -1 -22 -8 -43 -10 -29 -22 -44 -51
-58 -21 -10 -40 -16 -43 -14 -2 3 1 30 7 61 8 37 17 57 28 60 17 5 61 1 67 -6z
m-111 -54 c-4 -27 -11 -55 -16 -64 -8 -16 -96 -45 -106 -35 -2 2 -1 25 2 51 7
42 11 48 54 70 68 36 75 34 66 -22z m-147 -98 c-7 -7 -35 -15 -61 -19 l-48 -6
3 31 c3 27 10 34 58 53 l55 22 3 -34 c2 -20 -2 -40 -10 -47z m227 9 c-11 -61
-23 -82 -55 -99 -18 -9 -34 -14 -37 -11 -3 2 -2 28 2 56 6 45 11 53 43 70 51
26 55 25 47 -16z m-355 -4 l0 -30 -60 0 c-81 0 -82 22 -2 43 31 8 58 15 60 16
1 1 2 -12 2 -29z m-140 -15 c0 -12 -14 -15 -62 -15 -69 0 -72 6 -7 19 64 13
69 12 69 -4z m397 -7 c-3 -13 -9 -40 -13 -61 -7 -39 -15 -46 -76 -61 -27 -6
-28 -5 -27 36 1 66 11 81 60 94 61 17 62 17 56 -8z m-128 -30 c0 -13 -3 -41
-7 -63 -6 -34 -11 -40 -40 -46 -63 -13 -73 -4 -70 60 l3 56 45 6 c25 3 51 7
58 7 6 1 12 -8 11 -20z m-411 -48 c-2 -14 -7 -17 -17 -10 -13 7 -13 13 -1 37
11 22 14 24 17 11 3 -10 3 -27 1 -38z m142 4 c0 -43 -2 -46 -22 -40 -13 3 -40
6 -60 6 -38 0 -38 0 -38 40 l0 40 60 0 60 0 0 -46z m136 9 c-3 -21 -6 -46 -6
-55 0 -15 -4 -16 -26 -8 -14 6 -39 10 -55 10 -28 0 -29 2 -29 45 l0 45 61 0
62 0 -7 -37z m328 -40 c-4 -16 -10 -39 -14 -53 -6 -22 -65 -68 -75 -59 -2 2 1
27 7 55 8 43 15 54 42 66 44 22 47 21 40 -9z m-100 -72 c-6 -48 -9 -51 -43
-61 -52 -14 -51 -15 -51 39 l0 50 48 14 c26 7 48 13 50 11 2 -1 0 -25 -4 -53z
m-109 -2 c-4 -10 -9 -31 -11 -46 -6 -34 -9 -37 -28 -30 -12 5 -13 11 -3 38 9
25 9 33 0 36 -21 7 -15 21 10 25 31 5 39 0 32 -23z m-77 4 c-9 -2 -19 -12 -21
-21 -3 -12 -5 -10 -6 6 -1 17 4 22 22 21 15 -1 17 -3 5 -6z m15 -48 c-7 -21
-12 -19 -10 4 0 11 5 18 9 15 4 -3 5 -11 1 -19z m-12 -30 c5 4 9 1 9 -4 0 -22
-36 -11 -37 12 -2 19 -1 20 8 4 6 -9 14 -15 20 -12z"/>
<path d="M4431 3115 c0 -5 6 -21 14 -35 8 -14 14 -20 14 -15 0 6 -6 21 -14 35
-8 14 -14 21 -14 15z"/>
<path d="M4356 1055 c-3 -8 -1 -15 3 -15 5 0 11 7 15 15 3 8 1 15 -3 15 -5 0
-11 -7 -15 -15z"/>
<path d="M2782 2473 l-53 -4 3 -97 3 -97 37 -9 c31 -8 41 -6 58 9 17 16 20 31
20 112 0 51 -3 92 -7 91 -5 -1 -32 -3 -61 -5z m58 -91 c0 -68 -3 -82 -21 -98
-22 -19 -22 -19 -10 4 7 12 11 50 9 85 -3 56 -5 62 -25 65 -36 5 -27 22 12 22
l35 0 0 -78z"/>
<path d="M1450 2363 c-84 -8 -80 -3 -80 -108 0 -83 2 -96 19 -105 33 -17 89
-12 101 9 11 22 14 212 3 209 -5 0 -24 -3 -43 -5z m40 -97 c0 -64 -4 -88 -16
-100 -8 -9 -18 -16 -22 -16 -3 0 -1 5 6 12 7 7 12 41 12 84 l0 72 -32 8 -33 8
30 7 c56 13 55 15 55 -75z"/>
<path d="M4705 2257 c2 -27 -42 -69 -102 -98 -24 -12 -42 -23 -39 -26 8 -8
109 17 133 32 14 10 20 22 18 36 -3 12 -1 27 3 33 11 19 11 34 -2 39 -8 3 -12
-3 -11 -16z"/>
<path d="M2703 2080 c-23 -5 -61 -18 -85 -29 -38 -17 -40 -19 -17 -20 40 -1
101 -52 138 -117 19 -32 40 -68 47 -80 6 -11 31 -26 54 -34 50 -17 110 -69
110 -96 0 -13 -6 -8 -17 15 -12 24 -32 41 -67 57 -28 13 -52 22 -53 20 -2 -2
8 -39 22 -82 28 -86 42 -165 51 -295 l6 -86 23 11 c43 20 59 74 52 178 -4 51
-9 109 -13 128 -4 19 -4 33 -1 30 9 -8 26 -126 29 -197 1 -35 5 -63 9 -63 4 0
16 21 27 48 65 152 56 318 -25 445 -52 82 -153 154 -223 158 -20 1 -18 3 10 9
l35 7 -35 1 c-19 0 -54 -4 -77 -8z"/>
<path d="M2838 2073 c7 -3 16 -2 19 1 4 3 -2 6 -13 5 -11 0 -14 -3 -6 -6z"/>
<path d="M2930 2030 c25 -16 60 -46 79 -67 32 -36 32 -36 11 -5 -22 33 -106
101 -125 102 -5 0 10 -13 35 -30z"/>
<path d="M1320 1936 c-25 -7 -58 -20 -74 -28 l-29 -15 34 -7 c43 -8 114 -82
157 -164 19 -35 41 -66 50 -69 88 -28 152 -81 152 -125 0 -7 -8 3 -18 22 -12
25 -33 43 -71 62 -30 16 -56 26 -58 24 -3 -2 9 -46 26 -98 32 -99 51 -220 51
-330 0 -38 3 -68 8 -68 12 1 59 45 71 68 14 26 14 118 0 217 -6 42 -8 79 -6
82 5 4 21 -107 33 -222 l6 -60 15 29 c100 190 73 428 -64 574 -50 53 -138 102
-185 102 -15 0 -30 5 -33 10 -7 12 -7 12 -65 -4z"/>
<path d="M1423 1943 c9 -2 25 -2 35 0 9 3 1 5 -18 5 -19 0 -27 -2 -17 -5z"/>
<path d="M3056 1887 c3 -10 9 -15 12 -12 3 3 0 11 -7 18 -10 9 -11 8 -5 -6z"/>
<path d="M1620 1865 c13 -14 26 -25 28 -25 3 0 -5 11 -18 25 -13 14 -26 25
-28 25 -3 0 5 -11 18 -25z"/>
<path d="M2585 1840 c10 -11 20 -20 23 -20 3 0 -3 9 -13 20 -10 11 -20 20 -23
20 -3 0 3 -9 13 -20z"/>
<path d="M3082 1819 c6 -16 12 -28 14 -26 5 5 -13 57 -20 57 -3 0 0 -14 6 -31z"/>
<path d="M1679 1806 c11 -15 18 -33 14 -39 -3 -5 -1 -7 5 -3 5 3 13 0 15 -6 3
-7 6 -8 6 -3 1 6 -13 26 -30 45 -21 24 -24 26 -10 6z"/>
<path d="M2532 1821 c-24 -15 -42 -102 -42 -205 l0 -102 39 4 c37 4 40 1 97
-67 32 -39 60 -71 62 -71 10 0 -10 244 -23 287 -8 26 -12 50 -9 55 3 4 0 8 -6
8 -7 0 -9 7 -6 16 3 8 2 12 -3 9 -9 -5 -27 32 -23 48 1 5 -2 6 -7 3 -5 -3 -14
1 -21 9 -14 17 -38 19 -58 6z"/>
<path d="M3101 1744 c0 -11 3 -14 6 -6 3 7 2 16 -1 19 -3 4 -6 -2 -5 -13z"/>
<path d="M3158 1743 c7 -3 16 -2 19 1 4 3 -2 6 -13 5 -11 0 -14 -3 -6 -6z"/>
<path d="M1731 1720 c14 -31 19 -36 19 -24 0 6 -7 19 -16 30 -14 18 -14 18 -3
-6z"/>
<path d="M3150 1690 c0 -23 25 -27 33 -6 7 16 -1 26 -20 26 -7 0 -13 -9 -13
-20z"/>
<path d="M3111 1684 c0 -11 3 -14 6 -6 3 7 2 16 -1 19 -3 4 -6 -2 -5 -13z"/>
<path d="M1155 1656 c-26 -39 -35 -85 -42 -205 l-6 -114 37 7 c35 7 40 4 80
-36 23 -24 57 -61 75 -83 l33 -40 -8 125 c-4 69 -8 139 -8 157 -1 17 -5 29
-10 26 -5 -3 -7 6 -4 20 3 15 2 24 -2 22 -11 -7 -31 55 -23 68 4 6 1 7 -7 2
-10 -6 -12 -4 -7 8 4 10 2 16 -5 14 -6 -1 -13 4 -16 12 -3 9 0 11 8 6 9 -5 11
-4 6 4 -4 6 -11 9 -16 6 -4 -3 -13 2 -20 10 -18 22 -47 18 -65 -9z"/>
<path d="M3155 1640 c-3 -5 1 -10 9 -10 9 0 16 5 16 10 0 6 -4 10 -9 10 -6 0
-13 -4 -16 -10z"/>
<path d="M1771 1574 c0 -11 3 -14 6 -6 3 7 2 16 -1 19 -3 4 -6 -2 -5 -13z"/>
<path d="M1830 1580 c0 -5 5 -10 10 -10 6 0 10 5 10 10 0 6 -4 10 -10 10 -5 0
-10 -4 -10 -10z"/>
<path d="M1820 1525 c0 -18 5 -25 20 -25 15 0 20 7 20 25 0 18 -5 25 -20 25
-15 0 -20 -7 -20 -25z"/>
<path d="M1781 1514 c0 -11 3 -14 6 -6 3 7 2 16 -1 19 -3 4 -6 -2 -5 -13z"/>
<path d="M2702 1490 c0 -19 2 -27 5 -17 2 9 2 25 0 35 -3 9 -5 1 -5 -18z"/>
<path d="M2533 1493 c9 -2 23 -2 30 0 6 3 -1 5 -18 5 -16 0 -22 -2 -12 -5z"/>
<path d="M1830 1470 c0 -5 5 -10 11 -10 5 0 7 5 4 10 -3 6 -8 10 -11 10 -2 0
-4 -4 -4 -10z"/>
<path d="M1321 1454 c0 -11 3 -14 6 -6 3 7 2 16 -1 19 -3 4 -6 -2 -5 -13z"/>
<path d="M1771 1414 c0 -11 3 -14 6 -6 3 7 2 16 -1 19 -3 4 -6 -2 -5 -13z"/>
<path d="M1332 1400 c0 -14 2 -19 5 -12 2 6 2 18 0 25 -3 6 -5 1 -5 -13z"/>
<path d="M2492 1380 c0 -19 2 -27 5 -17 2 9 2 25 0 35 -3 9 -5 1 -5 -18z"/>
<path d="M2712 1390 c0 -14 2 -19 5 -12 2 6 2 18 0 25 -3 6 -5 1 -5 -13z"/>
<path d="M1762 1370 c0 -14 2 -19 5 -12 2 6 2 18 0 25 -3 6 -5 1 -5 -13z"/>
<path d="M2592 1370 c0 -14 2 -19 5 -12 2 6 2 18 0 25 -3 6 -5 1 -5 -13z"/>
<path d="M2993 1361 c-15 -13 -23 -29 -22 -48 2 -27 2 -27 6 -3 3 14 14 35 26
48 25 27 20 28 -10 3z"/>
<path d="M2712 1340 c0 -14 2 -19 5 -12 2 6 2 18 0 25 -3 6 -5 1 -5 -13z"/>
<path d="M1341 1324 c0 -11 3 -14 6 -6 3 7 2 16 -1 19 -3 4 -6 -2 -5 -13z"/>
<path d="M1746 1325 c-9 -26 -7 -32 5 -12 6 10 9 21 6 23 -2 3 -7 -2 -11 -11z"/>
<path d="M1168 1313 c6 -2 18 -2 25 0 6 3 1 5 -13 5 -14 0 -19 -2 -12 -5z"/>
<path d="M2502 1295 c0 -16 2 -22 5 -12 2 9 2 23 0 30 -3 6 -5 -1 -5 -18z"/>
<path d="M2602 1300 c0 -14 2 -19 5 -12 2 6 2 18 0 25 -3 6 -5 1 -5 -13z"/>
<path d="M1212 1280 c0 -14 2 -19 5 -12 2 6 2 18 0 25 -3 6 -5 1 -5 -13z"/>
<path d="M2712 1280 c0 -14 2 -19 5 -12 2 6 2 18 0 25 -3 6 -5 1 -5 -13z"/>
<path d="M2891 1274 c0 -11 3 -14 6 -6 3 7 2 16 -1 19 -3 4 -6 -2 -5 -13z"/>
<path d="M2957 1248 c-8 -31 -66 -66 -78 -47 -6 9 -9 10 -9 2 0 -23 21 -24 55
-3 31 19 54 55 42 66 -2 3 -7 -5 -10 -18z"/>
<path d="M2511 1250 c0 -8 4 -22 9 -30 12 -18 12 -2 0 25 -6 13 -9 15 -9 5z"/>
<path d="M2611 1244 c0 -11 3 -14 6 -6 3 7 2 16 -1 19 -3 4 -6 -2 -5 -13z"/>
<path d="M1354 1145 c0 -55 1 -76 3 -47 2 29 2 74 0 100 -2 26 -3 2 -3 -53z"/>
<path d="M1699 1223 c-13 -16 -12 -17 4 -4 16 13 21 21 13 21 -2 0 -10 -8 -17
-17z"/>
<path d="M1222 1195 c0 -16 2 -22 5 -12 2 9 2 23 0 30 -3 6 -5 -1 -5 -18z"/>
<path d="M2621 1204 c0 -11 3 -14 6 -6 3 7 2 16 -1 19 -3 4 -6 -2 -5 -13z"/>
<path d="M1122 1180 c0 -19 2 -27 5 -17 2 9 2 25 0 35 -3 9 -5 1 -5 -18z"/>
<path d="M1664 1178 l-19 -23 23 19 c21 18 27 26 19 26 -2 0 -12 -10 -23 -22z"/>
<path d="M2530 1194 c0 -7 9 -22 21 -35 16 -19 18 -20 10 -4 -17 34 -31 51
-31 39z"/>
<path d="M2662 1184 c-7 -8 -8 -14 -3 -14 10 0 25 19 20 25 -2 1 -10 -3 -17
-11z"/>
<path d="M2702 1175 c0 -16 2 -22 5 -12 2 9 2 23 0 30 -3 6 -5 -1 -5 -18z"/>
<path d="M1632 1120 c0 -19 2 -27 5 -17 2 9 2 25 0 35 -3 9 -5 1 -5 -18z"/>
<path d="M1231 1124 c0 -11 3 -14 6 -6 3 7 2 16 -1 19 -3 4 -6 -2 -5 -13z"/>
<path d="M1127 1100 c9 -53 24 -83 17 -35 -4 22 -10 47 -15 55 -5 9 -6 1 -2
-20z"/>
<path d="M2600 1106 c0 -2 8 -10 18 -17 15 -13 16 -12 3 4 -13 16 -21 21 -21
13z"/>
<path d="M1241 1074 c0 -11 3 -14 6 -6 3 7 2 16 -1 19 -3 4 -6 -2 -5 -13z"/>
<path d="M2675 1079 c-4 -6 -5 -12 -2 -15 2 -3 7 2 10 11 7 17 1 20 -8 4z"/>
<path d="M1621 1064 c0 -11 3 -14 6 -6 3 7 2 16 -1 19 -3 4 -6 -2 -5 -13z"/>
<path d="M1537 1043 c-4 -3 -7 -13 -7 -22 1 -13 3 -13 11 2 11 19 8 33 -4 20z"/>
<path d="M1610 1032 c0 -6 -20 -20 -45 -31 -54 -24 -61 -38 -7 -16 42 18 69
41 59 51 -4 4 -7 2 -7 -4z"/>
<path d="M1150 1016 c0 -13 53 -107 57 -102 3 2 -9 28 -26 58 -17 29 -31 49
-31 44z"/>
<path d="M1343 975 c0 -22 2 -30 4 -17 2 12 2 30 0 40 -3 9 -5 -1 -4 -23z"/>
<path d="M1290 975 c-14 -8 -20 -14 -14 -15 5 0 19 7 30 15 24 18 16 19 -16 0z"/>
<path d="M1310 860 c-6 -11 -7 -20 -2 -20 6 0 12 9 15 20 3 11 3 20 1 20 -2 0
-8 -9 -14 -20z"/>
<path d="M1257 859 c7 -7 15 -10 18 -7 3 3 -2 9 -12 12 -14 6 -15 5 -6 -5z"/>
<path d="M3227 703 c-28 -7 -9 -23 29 -23 24 0 34 5 34 15 0 15 -25 18 -63 8z"/>
<path d="M34 514 c3 -9 6 -20 6 -25 0 -5 18 -9 40 -9 51 0 51 13 0 34 -50 20
-54 20 -46 0z"/>
<path d="M2065 492 c3 -8 5 -18 5 -23 0 -5 16 -9 35 -9 19 0 35 4 35 9 0 5 2
15 5 23 4 10 -6 13 -40 13 -33 0 -44 -3 -40 -13z"/>
<path d="M4793 471 c-20 -17 -21 -20 -6 -26 10 -3 14 -3 10 1 -4 4 0 16 10 26
21 23 14 23 -14 -1z"/>
<path d="M1923 473 c-20 -3 -33 -10 -33 -19 0 -21 76 -19 84 2 8 22 8 24 -6
22 -7 0 -28 -3 -45 -5z"/>
<path d="M4522 404 c9 -9 21 -15 27 -13 6 2 -2 10 -17 17 -25 11 -25 11 -10
-4z"/>
<path d="M4598 383 c6 -2 18 -2 25 0 6 3 1 5 -13 5 -14 0 -19 -2 -12 -5z"/>
<path d="M4473 265 c0 -22 2 -30 4 -17 2 12 2 30 0 40 -3 9 -5 -1 -4 -23z"/>
<path d="M660 238 c0 -9 7 -21 16 -26 18 -10 64 -4 64 8 0 5 2 14 5 22 4 10
-6 13 -40 13 -36 0 -45 -4 -45 -17z"/>
<path d="M4462 95 c0 -16 2 -22 5 -12 2 9 2 23 0 30 -3 6 -5 -1 -5 -18z"/>
</g>
</svg>
