<?xml version="1.0" encoding="UTF-8"?>
<!DOCTYPE svg PUBLIC "-//W3C//DTD SVG 1.1//EN" "http://www.w3.org/Graphics/SVG/1.1/DTD/svg11.dtd">
<svg xmlns="http://www.w3.org/2000/svg" version="1.1" width="750px" height="750px" style="shape-rendering:geometricPrecision; text-rendering:geometricPrecision; image-rendering:optimizeQuality; fill-rule:evenodd; clip-rule:evenodd" xmlns:xlink="http://www.w3.org/1999/xlink">
<g><path style="opacity:0.631" fill="#ac9ac5" d="M 349.5,151.5 C 351.592,151.561 353.092,152.561 354,154.5C 354.684,155.784 354.517,156.951 353.5,158C 354.448,158.483 355.448,158.649 356.5,158.5C 355.741,164.578 353.408,165.078 349.5,160C 350.167,159.667 350.833,159.333 351.5,159C 348.309,157.131 347.642,154.631 349.5,151.5 Z"/></g>
<g><path style="opacity:0.649" fill="#ac9ac5" d="M 414.5,272.5 C 415.794,270.704 416.794,268.704 417.5,266.5C 418.086,266.709 418.586,267.043 419,267.5C 419.497,264.854 419.664,262.187 419.5,259.5C 420.552,259.649 421.552,259.483 422.5,259C 421.317,254.149 422.15,253.649 425,257.5C 426.049,256.483 427.216,256.316 428.5,257C 427.284,258.74 425.618,259.74 423.5,260C 425.18,260.347 426.18,261.347 426.5,263C 424.757,264.837 422.757,266.504 420.5,268C 422.956,269.913 422.622,271.579 419.5,273C 420.956,273.423 421.456,274.256 421,275.5C 419.649,275.446 418.482,275.946 417.5,277C 416.422,280.149 415.422,283.316 414.5,286.5C 414.957,287.298 415.624,287.631 416.5,287.5C 417.429,286.685 418.429,285.852 419.5,285C 418.269,283.817 418.269,282.651 419.5,281.5C 421.883,282.462 422.883,281.462 422.5,278.5C 423.675,278.719 424.675,278.386 425.5,277.5C 423.844,275.588 423.511,273.588 424.5,271.5C 425.799,272.09 426.632,273.09 427,274.5C 427.497,272.19 427.663,269.857 427.5,267.5C 429.124,267.64 430.29,266.973 431,265.5C 431.743,263.559 431.576,261.726 430.5,260C 431.536,258.383 432.703,258.216 434,259.5C 436.19,257.217 436.857,254.551 436,251.5C 435.667,252.833 435.333,254.167 435,255.5C 434.505,253.527 434.338,251.527 434.5,249.5C 436.331,250.052 437.997,250.052 439.5,249.5C 441.27,246.807 441.937,243.807 441.5,240.5C 444.55,241.077 446.55,239.91 447.5,237C 445.65,233.534 446.65,231.701 450.5,231.5C 450.5,229.833 450.5,228.167 450.5,226.5C 452.677,226.414 454.677,225.747 456.5,224.5C 456.833,225 457.167,225.5 457.5,226C 455.799,227.86 454.799,230.027 454.5,232.5C 453.448,232.351 452.448,232.517 451.5,233C 452.956,233.423 453.456,234.256 453,235.5C 451.581,236.46 450.081,237.293 448.5,238C 449.517,239.049 449.684,240.216 449,241.5C 447.663,244.002 445.829,246.002 443.5,247.5C 444.933,249.809 444.266,251.309 441.5,252C 442.624,252.249 443.624,252.749 444.5,253.5C 444.333,253.833 444.167,254.167 444,254.5C 441.133,254.935 438.633,256.101 436.5,258C 437.925,259.362 438.758,260.862 439,262.5C 436.92,264.123 434.754,265.623 432.5,267C 434.5,268.667 436.5,270.333 438.5,272C 435.117,272.875 431.784,273.875 428.5,275C 430.179,275.395 431.845,275.228 433.5,274.5C 434.737,274.556 435.737,275.056 436.5,276C 433.393,277.691 430.059,278.858 426.5,279.5C 426.167,280.167 425.833,280.833 425.5,281.5C 427.117,281.669 428.784,282.003 430.5,282.5C 430.291,283.086 429.957,283.586 429.5,284C 430.956,284.423 431.456,285.256 431,286.5C 426.852,288.237 422.686,289.07 418.5,289C 420.259,290.008 421.426,291.508 422,293.5C 423.726,292.424 425.559,292.257 427.5,293C 425.416,294.771 423.082,296.104 420.5,297C 421.5,298.667 422.833,300 424.5,301C 419.683,302.248 418.683,304.748 421.5,308.5C 421,308.833 420.5,309.167 420,309.5C 418.523,308.556 417.523,307.223 417,305.5C 415.682,308.43 415.015,311.43 415,314.5C 416.545,313.179 417.711,313.512 418.5,315.5C 416.547,316.761 414.547,317.927 412.5,319C 414.437,319.122 415.77,319.955 416.5,321.5C 416.5,322.167 416.167,322.5 415.5,322.5C 412.762,321.965 410.928,322.965 410,325.5C 408.778,329.61 407.278,333.61 405.5,337.5C 405.855,338.522 406.522,339.189 407.5,339.5C 407.5,339.833 407.5,340.167 407.5,340.5C 405.856,340.286 404.356,340.62 403,341.5C 402.647,345.117 401.814,348.617 400.5,352C 402.672,354.972 404.672,354.639 406.5,351C 405.643,350.311 404.977,349.478 404.5,348.5C 405.912,346.24 406.912,343.907 407.5,341.5C 407.5,345.5 407.5,349.5 407.5,353.5C 405.443,355.043 405.443,356.043 407.5,356.5C 407.5,357.167 407.5,357.833 407.5,358.5C 407.5,359.5 407.5,360.5 407.5,361.5C 405.409,361.318 403.409,361.652 401.5,362.5C 400.747,365.294 399.747,367.96 398.5,370.5C 397.532,368.393 397.198,366.059 397.5,363.5C 398.993,362.688 399.66,361.355 399.5,359.5C 399.333,358.5 399.167,357.5 399,356.5C 398.79,358.058 398.29,359.391 397.5,360.5C 397.5,357.833 397.5,355.167 397.5,352.5C 398.943,349.765 399.943,346.765 400.5,343.5C 400.444,342.263 399.944,341.263 399,340.5C 398.79,342.058 398.29,343.391 397.5,344.5C 397.296,339.276 397.296,334.276 397.5,329.5C 398.586,329.38 399.253,328.713 399.5,327.5C 398.909,325.734 398.076,324.067 397,322.5C 396.517,323.448 396.351,324.448 396.5,325.5C 392.495,318.498 386.495,314.498 378.5,313.5C 378.5,310.5 378.5,307.5 378.5,304.5C 376.735,307.123 376.068,310.123 376.5,313.5C 375.081,314.451 373.415,314.784 371.5,314.5C 371.509,312.339 372.176,311.006 373.5,310.5C 372.611,308.102 371.111,306.102 369,304.5C 368.828,307.826 368.995,311.159 369.5,314.5C 367.716,314.893 366.05,315.559 364.5,316.5C 361.908,310.723 359.908,304.723 358.5,298.5C 357.5,297.167 356.5,297.167 355.5,298.5C 356.246,299.736 356.579,301.07 356.5,302.5C 358.582,303.585 358.916,305.085 357.5,307C 360.148,309.568 360.648,312.401 359,315.5C 358,313.5 357,311.5 356,309.5C 355.5,310 355,310.5 354.5,311C 355.861,316 358.861,317.833 363.5,316.5C 360.19,318.801 356.857,321.134 353.5,323.5C 353.217,324.289 352.717,324.956 352,325.5C 351.506,323.866 351.34,322.199 351.5,320.5C 353.379,320.607 353.712,320.107 352.5,319C 354.085,318.915 355.418,318.749 356.5,318.5C 356.123,316.176 355.123,315.509 353.5,316.5C 352.701,313.017 350.534,311.017 347,310.5C 347.792,308.154 347.625,305.821 346.5,303.5C 347.675,303.719 348.675,303.386 349.5,302.5C 346.98,302.346 344.98,300.846 343.5,298C 344.308,297.692 344.975,297.192 345.5,296.5C 344.333,294.167 343.167,291.833 342,289.5C 339.763,288.944 337.763,287.944 336,286.5C 335.383,283.824 336.216,283.157 338.5,284.5C 339.521,283.998 339.688,283.332 339,282.5C 336.118,281.642 333.618,280.142 331.5,278C 332.167,277.667 332.833,277.333 333.5,277C 332.269,275.817 332.269,274.651 333.5,273.5C 334.167,273.833 334.833,274.167 335.5,274.5C 338.338,270.426 339.838,271.092 340,276.5C 340.318,274.939 341.151,273.772 342.5,273C 341.239,269.554 342.572,267.554 346.5,267C 343.532,264.822 343.865,263.656 347.5,263.5C 347.895,260.477 346.895,259.477 344.5,260.5C 343.14,259.82 341.807,259.153 340.5,258.5C 340.843,256.517 340.176,255.183 338.5,254.5C 338.5,253.833 338.167,253.5 337.5,253.5C 338.263,252.732 339.263,252.232 340.5,252C 339.09,251.632 338.09,250.799 337.5,249.5C 338.201,246.679 339.201,244.012 340.5,241.5C 340.471,239.971 339.804,238.804 338.5,238C 336.003,237.588 334.003,236.422 332.5,234.5C 333.09,233.201 334.09,232.368 335.5,232C 335.043,231.586 334.709,231.086 334.5,230.5C 335.383,229.452 336.05,228.285 336.5,227C 334.136,225.176 331.803,223.176 329.5,221C 330.5,219.5 331.5,218 332.5,216.5C 333.396,217.506 334.062,217.506 334.5,216.5C 332.063,215.56 330.063,214.06 328.5,212C 329.653,210.346 330.987,208.846 332.5,207.5C 331.381,204.921 332.381,203.588 335.5,203.5C 337.424,205.09 337.757,206.924 336.5,209C 337.938,209.219 339.271,209.719 340.5,210.5C 338.749,212.972 337.915,215.639 338,218.5C 339.494,217.253 340.994,217.253 342.5,218.5C 341.527,221.135 339.86,223.135 337.5,224.5C 338.154,226.115 338.654,227.782 339,229.5C 341.021,226.714 342.521,227.047 343.5,230.5C 344.736,231.246 346.07,231.579 347.5,231.5C 347.415,233.929 346.415,235.929 344.5,237.5C 347.462,240.388 346.795,241.721 342.5,241.5C 342.687,243.564 343.187,245.564 344,247.5C 345.553,243.701 346.886,243.701 348,247.5C 351.003,244.894 351.836,245.56 350.5,249.5C 348.972,250.861 347.305,252.028 345.5,253C 346.071,254.205 346.738,255.372 347.5,256.5C 349.071,254.585 351.071,253.585 353.5,253.5C 353.649,254.552 353.483,255.552 353,256.5C 351.315,258.017 349.815,259.684 348.5,261.5C 349.154,263.115 349.654,264.782 350,266.5C 350.981,263.311 352.314,262.978 354,265.5C 355.183,264.269 356.349,264.269 357.5,265.5C 355.642,267.524 353.975,269.691 352.5,272C 353.271,274.577 354.271,277.077 355.5,279.5C 358.046,278.454 359.713,276.621 360.5,274C 359.225,269.955 359.225,265.955 360.5,262C 357.05,260.591 355.55,258.091 356,254.5C 356.333,254.833 356.667,255.167 357,255.5C 357.667,254.5 357.667,253.5 357,252.5C 356.107,253.711 355.274,253.711 354.5,252.5C 353.05,251.15 352.383,249.484 352.5,247.5C 353.675,247.719 354.675,247.386 355.5,246.5C 353.677,246.561 352.344,245.394 351.5,243C 352.649,241.27 352.649,239.604 351.5,238C 352.92,236.47 353.92,234.637 354.5,232.5C 355.5,234.167 356.833,235.5 358.5,236.5C 358.324,238.672 358.157,241.005 358,243.5C 356.392,245.767 357.225,246.767 360.5,246.5C 360.896,249.044 360.229,251.211 358.5,253C 359.416,253.374 360.25,253.874 361,254.5C 360.367,256.338 360.534,258.171 361.5,260C 363.783,261.618 365.283,263.785 366,266.5C 368.153,264.125 367.82,262.125 365,260.5C 364.342,258.892 364.842,257.725 366.5,257C 363.113,254.464 363.113,252.464 366.5,251C 364.169,248.8 364.169,246.8 366.5,245C 362.861,242.114 362.527,238.781 365.5,235C 362.962,232.641 363.629,231.141 367.5,230.5C 364.956,228.608 364.956,226.775 367.5,225C 363.23,222.815 362.564,220.648 365.5,218.5C 364.593,215.579 364.26,212.579 364.5,209.5C 362.516,209.617 360.85,208.95 359.5,207.5C 359.88,205.979 360.046,204.313 360,202.5C 360.667,201.167 361.333,201.167 362,202.5C 362.328,199.793 361.995,197.126 361,194.5C 358.609,193.571 356.775,192.071 355.5,190C 355.734,187.384 356.568,184.884 358,182.5C 356.663,180.996 354.996,179.996 353,179.5C 352.517,178.552 352.351,177.552 352.5,176.5C 353.5,176.5 354.5,176.5 355.5,176.5C 355.5,175.5 355.5,174.5 355.5,173.5C 353.61,173.703 352.11,173.037 351,171.5C 350.544,170.256 351.044,169.423 352.5,169C 351.269,167.817 351.269,166.651 352.5,165.5C 353.833,166.833 355.167,166.833 356.5,165.5C 357.251,166.376 357.751,167.376 358,168.5C 358.333,168.167 358.667,167.833 359,167.5C 359.429,169.669 358.929,171.669 357.5,173.5C 358.109,176.837 359.276,177.17 361,174.5C 361.167,175.333 361.333,176.167 361.5,177C 360.388,179.076 359.888,181.243 360,183.5C 360.667,184.833 361.333,186.167 362,187.5C 362.583,185.998 363.416,184.665 364.5,183.5C 365.086,183.709 365.586,184.043 366,184.5C 364.389,188.213 363.722,192.213 364,196.5C 366.608,201.202 369.108,205.869 371.5,210.5C 370.112,213.079 368.612,213.079 367,210.5C 366.986,212.471 367.319,214.471 368,216.5C 369.11,218.037 370.61,218.703 372.5,218.5C 372.607,220.903 371.607,222.736 369.5,224C 372.707,224.572 374.374,226.405 374.5,229.5C 372.61,229.703 371.11,229.037 370,227.5C 369.333,229.5 369.333,231.5 370,233.5C 370.589,231.137 372.089,230.137 374.5,230.5C 374.822,232.722 374.155,234.556 372.5,236C 376.629,239.695 375.962,241.028 370.5,240C 371.462,246.143 372.462,252.31 373.5,258.5C 372.863,261.635 373.529,264.635 375.5,267.5C 374.425,270.438 374.259,273.438 375,276.5C 376.011,277.337 377.178,277.67 378.5,277.5C 378.296,274.482 377.963,271.482 377.5,268.5C 378.5,268.5 379.5,268.5 380.5,268.5C 381.143,264.599 380.143,261.266 377.5,258.5C 377.914,254.879 377.914,251.213 377.5,247.5C 378.5,247.5 379.5,247.5 380.5,247.5C 380.642,243.85 379.975,240.35 378.5,237C 378.645,236.228 378.978,235.561 379.5,235C 378.128,233.758 377.128,232.258 376.5,230.5C 380.735,225.483 380.401,220.816 375.5,216.5C 376.263,215.281 377.263,214.281 378.5,213.5C 375.836,209.494 375.836,205.494 378.5,201.5C 380.488,202.289 380.821,203.455 379.5,205C 380.624,205.249 381.624,205.749 382.5,206.5C 381.5,207.833 380.5,209.167 379.5,210.5C 380.531,211.7 381.365,213.034 382,214.5C 383.156,213.007 383.99,213.174 384.5,215C 382.887,217.756 381.553,220.59 380.5,223.5C 380.337,226.339 381.67,228.006 384.5,228.5C 383.783,230.828 382.783,232.995 381.5,235C 382.73,239.239 384.23,239.073 386,234.5C 387.299,238.708 385.799,241.375 381.5,242.5C 384.724,246.179 385.057,250.012 382.5,254C 383.535,254.253 384.535,255.086 385.5,256.5C 382.323,262.376 380.99,268.71 381.5,275.5C 382.5,275.5 383.5,275.5 384.5,275.5C 383.219,277.669 382.219,280.003 381.5,282.5C 381.936,285.179 382.436,287.845 383,290.5C 383.554,288.39 384.388,286.39 385.5,284.5C 384.453,282.944 383.786,281.277 383.5,279.5C 384.5,279.5 385.5,279.5 386.5,279.5C 386.33,278.178 386.663,277.011 387.5,276C 385.522,275.519 384.189,274.353 383.5,272.5C 385.672,269.41 387.339,266.077 388.5,262.5C 387.696,261.059 387.029,259.559 386.5,258C 388.349,255.969 389.682,253.636 390.5,251C 388.041,248.253 387.208,245.086 388,241.5C 390.481,240.851 390.814,239.851 389,238.5C 388.333,237.167 388.333,235.833 389,234.5C 389.333,234.833 389.667,235.167 390,235.5C 390.635,233.382 391.469,231.382 392.5,229.5C 391.722,227.853 390.556,226.52 389,225.5C 388.517,224.552 388.351,223.552 388.5,222.5C 389.822,222.33 390.989,222.663 392,223.5C 393.626,218.094 394.459,212.76 394.5,207.5C 395.086,207.709 395.586,208.043 396,208.5C 398.106,203.233 399.606,203.566 400.5,209.5C 399.687,210.814 398.687,211.981 397.5,213C 398.308,213.308 398.975,213.808 399.5,214.5C 397.959,216.204 396.625,218.037 395.5,220C 395.646,221.727 396.313,221.894 397.5,220.5C 402.006,225.148 401.006,227.981 394.5,229C 393.446,230.388 393.28,231.888 394,233.5C 394.308,232.692 394.808,232.025 395.5,231.5C 396.281,232.729 396.781,234.062 397,235.5C 398.049,234.483 399.216,234.316 400.5,235C 399.359,237.308 397.692,239.141 395.5,240.5C 397.139,241.916 397.973,243.583 398,245.5C 396.2,247.145 394.2,248.478 392,249.5C 391.333,251.833 391.333,254.167 392,256.5C 393.813,255.391 394.646,256.058 394.5,258.5C 396.355,258.272 397.188,258.939 397,260.5C 394.366,262.559 391.866,264.725 389.5,267C 390.77,267.9 391.77,269.066 392.5,270.5C 393.451,269.674 394.451,269.508 395.5,270C 394.064,272.643 391.897,274.477 389,275.5C 388.786,281.613 390.12,281.946 393,276.5C 394.113,277.76 394.28,278.927 393.5,280C 394.872,280.402 396.205,280.902 397.5,281.5C 398.524,280.147 399.857,279.48 401.5,279.5C 401.351,280.552 401.517,281.552 402,282.5C 405.521,273.769 408.354,264.769 410.5,255.5C 409.579,253.033 408.745,250.699 408,248.5C 410.867,245.943 412.867,246.276 414,249.5C 414.908,247.561 416.408,246.561 418.5,246.5C 418.756,248.937 419.423,251.271 420.5,253.5C 418.796,255.849 416.463,256.849 413.5,256.5C 413.682,258.591 413.348,260.591 412.5,262.5C 413.441,262.489 414.108,262.989 414.5,264C 414.015,266.819 414.015,269.652 414.5,272.5 Z M 344.5,234.5 C 343.998,236.085 342.998,236.585 341.5,236C 342.244,234.961 343.244,234.461 344.5,234.5 Z M 369.5,255.5 C 370.713,256.497 370.546,257.497 369,258.5C 368.53,257.423 368.697,256.423 369.5,255.5 Z M 402.5,258.5 C 400.846,261.137 400.346,260.803 401,257.5C 401.383,258.056 401.883,258.389 402.5,258.5 Z M 371.5,264.5 C 369.027,264.053 368.86,263.053 371,261.5C 371.483,262.448 371.649,263.448 371.5,264.5 Z M 368.5,275.5 C 366.976,274.826 365.642,273.826 364.5,272.5C 363.808,273.025 363.308,273.692 363,274.5C 361.943,271.451 361.776,268.451 362.5,265.5C 362.787,268.671 364.454,270.671 367.5,271.5C 368.429,272.689 368.762,274.022 368.5,275.5 Z M 343.5,270.5 C 346.716,270.872 347.216,272.206 345,274.5C 344.209,273.255 343.709,271.922 343.5,270.5 Z M 370.5,270.5 C 371.725,271.152 372.392,272.319 372.5,274C 372.546,275.728 372.046,277.228 371,278.5C 370.764,276.236 370.264,274.069 369.5,272C 370.056,271.617 370.389,271.117 370.5,270.5 Z M 348.5,271.5 C 350.301,272.719 351.301,274.552 351.5,277C 348.84,278.676 348.84,280.343 351.5,282C 350.789,283.255 349.956,284.421 349,285.5C 346.27,281.568 346.437,278.068 349.5,275C 348.663,273.989 348.33,272.822 348.5,271.5 Z M 414.5,272.5 C 415.147,273.274 415.48,274.274 415.5,275.5C 414.694,279.247 413.694,282.914 412.5,286.5C 411.5,286.5 410.5,286.5 409.5,286.5C 409.657,287.873 409.49,289.207 409,290.5C 408.107,289.289 407.274,289.289 406.5,290.5C 407.524,291.852 408.524,293.185 409.5,294.5C 408.25,294.577 407.417,295.244 407,296.5C 406.716,294.114 405.716,293.448 404,294.5C 404.594,292.491 404.427,290.491 403.5,288.5C 406.031,284.366 409.364,280.866 413.5,278C 413.043,277.586 412.709,277.086 412.5,276.5C 413.63,275.378 414.297,274.044 414.5,272.5 Z M 368.5,275.5 C 369.461,277.265 369.795,279.265 369.5,281.5C 367.775,281.843 367.275,282.843 368,284.5C 369.444,286.155 371.278,286.822 373.5,286.5C 372.545,288.71 371.045,289.043 369,287.5C 368.421,288.928 368.588,290.262 369.5,291.5C 368.504,291.414 367.671,291.748 367,292.5C 366.416,288.905 365.582,285.405 364.5,282C 366.734,280.362 368.067,278.195 368.5,275.5 Z M 341.5,278.5 C 342.465,279.721 342.298,281.054 341,282.5C 340.421,281.072 340.588,279.738 341.5,278.5 Z M 359.5,279.5 C 361.379,279.393 361.712,279.893 360.5,281C 362.708,282.836 364.042,285.169 364.5,288C 362.185,289.109 360.685,290.943 360,293.5C 357.79,292.368 357.29,290.868 358.5,289C 358.104,287.103 357.104,285.603 355.5,284.5C 356.508,282.501 357.841,280.834 359.5,279.5 Z M 378.5,304.5 C 378.843,302.517 378.176,301.183 376.5,300.5C 378.319,299.064 378.652,297.397 377.5,295.5C 375.803,296.364 374.637,297.697 374,299.5C 373.333,297.833 373.333,296.167 374,294.5C 375.522,292.978 377.022,291.478 378.5,290C 377.991,288.831 377.158,287.998 376,287.5C 375.971,284.633 375.138,282.133 373.5,280C 377.481,279.31 379.815,280.977 380.5,285C 379.975,291.665 379.308,298.165 378.5,304.5 Z M 403.5,285.5 C 403.343,284.127 403.51,282.793 404,281.5C 406.019,283.124 405.852,284.457 403.5,285.5 Z M 394.5,282.5 C 396.786,286.897 397.12,291.564 395.5,296.5C 394.325,296.719 393.325,296.386 392.5,295.5C 394.256,293.809 394.756,291.809 394,289.5C 391.849,292.112 391.015,292.112 391.5,289.5C 390.965,287.729 390.131,287.396 389,288.5C 388.202,286.741 388.369,285.074 389.5,283.5C 389.669,284.397 390.002,285.397 390.5,286.5C 392.188,285.479 393.521,284.145 394.5,282.5 Z M 400.5,285.5 C 401.043,285.56 401.376,285.893 401.5,286.5C 397.982,292.107 397.315,297.94 399.5,304C 398.521,309.436 397.688,309.602 397,304.5C 395.81,308.942 394.476,313.275 393,317.5C 390.519,316.851 390.186,315.851 392,314.5C 394.314,305.91 396.314,297.243 398,288.5C 399.045,287.627 399.878,286.627 400.5,285.5 Z M 353.5,286.5 C 355.104,287.287 355.771,288.62 355.5,290.5C 354.167,290.5 352.833,290.5 351.5,290.5C 351.527,288.801 352.194,287.467 353.5,286.5 Z M 416.5,287.5 C 418.593,291.327 418.426,294.994 416,298.5C 415.692,297.692 415.192,297.025 414.5,296.5C 413.059,299.736 413.392,302.736 415.5,305.5C 414.786,307.811 413.786,309.978 412.5,312C 411.668,312.688 411.002,312.521 410.5,311.5C 411.95,310.15 412.617,308.484 412.5,306.5C 411.448,306.649 410.448,306.483 409.5,306C 410.885,302.321 411.718,298.488 412,294.5C 414.519,292.789 416.019,290.455 416.5,287.5 Z M 345.5,290.5 C 347.09,290.628 348.423,291.295 349.5,292.5C 350.978,295.288 352.311,298.122 353.5,301C 353,301.5 352.5,302 352,302.5C 348.523,299.213 346.356,295.213 345.5,290.5 Z M 369.5,291.5 C 371.176,292.183 371.843,293.517 371.5,295.5C 369.31,296.748 368.977,298.414 370.5,300.5C 369.5,300.5 368.5,300.5 367.5,300.5C 367.21,297.215 367.877,294.215 369.5,291.5 Z M 382.5,292.5 C 383.695,292.866 384.361,293.699 384.5,295C 383.968,300.242 383.135,305.409 382,310.5C 382.072,304.52 382.239,298.52 382.5,292.5 Z M 387.5,294.5 C 387.511,296.017 388.177,297.184 389.5,298C 391.286,299.293 392.953,299.793 394.5,299.5C 392.899,300.204 391.565,301.371 390.5,303C 392.595,306.369 392.095,309.535 389,312.5C 387.228,311.01 387.061,309.343 388.5,307.5C 387.965,305.729 387.131,305.396 386,306.5C 385.721,302.3 386.221,298.3 387.5,294.5 Z M 364.5,316.5 C 364.167,316.5 363.833,316.5 363.5,316.5C 358.861,317.833 355.861,316 354.5,311C 355,310.5 355.5,310 356,309.5C 357,311.5 358,313.5 359,315.5C 360.648,312.401 360.148,309.568 357.5,307C 358.916,305.085 358.582,303.585 356.5,302.5C 356.579,301.07 356.246,299.736 355.5,298.5C 356.5,297.167 357.5,297.167 358.5,298.5C 359.908,304.723 361.908,310.723 364.5,316.5 Z M 361.5,298.5 C 362.794,299.29 363.961,300.29 365,301.5C 366.363,305.761 366.696,310.095 366,314.5C 363.986,309.293 362.486,303.96 361.5,298.5 Z M 408.5,299.5 C 408.671,302.797 408.005,303.131 406.5,300.5C 406.957,299.702 407.624,299.369 408.5,299.5 Z M 398.5,313.5 C 399.167,310.5 399.833,307.5 400.5,304.5C 402.792,304.756 404.959,304.423 407,303.5C 407.188,305.061 406.355,305.728 404.5,305.5C 404.933,308.166 405.433,310.832 406,313.5C 406.308,312.692 406.808,312.025 407.5,311.5C 408.044,314.714 409.044,317.714 410.5,320.5C 406.421,326.221 403.588,332.554 402,339.5C 401.691,338.234 401.191,337.067 400.5,336C 402.276,334.329 402.61,332.496 401.5,330.5C 402.641,325.278 404.308,320.278 406.5,315.5C 404.405,314.771 402.572,315.437 401,317.5C 400.508,316.451 400.674,315.451 401.5,314.5C 400.675,313.614 399.675,313.281 398.5,313.5 Z M 371.5,314.5 C 370.833,314.5 370.167,314.5 369.5,314.5C 368.995,311.159 368.828,307.826 369,304.5C 371.111,306.102 372.611,308.102 373.5,310.5C 372.176,311.006 371.509,312.339 371.5,314.5 Z M 378.5,304.5 C 378.5,307.5 378.5,310.5 378.5,313.5C 377.833,313.5 377.167,313.5 376.5,313.5C 376.068,310.123 376.735,307.123 378.5,304.5 Z"/></g>
<g><path style="opacity:0.667" fill="#ac9bc6" d="M 326.5,170.5 C 327.5,170.5 328.5,170.5 329.5,170.5C 330.167,172.5 330.833,174.5 331.5,176.5C 332.675,176.281 333.675,176.614 334.5,177.5C 333.329,179.169 331.996,180.669 330.5,182C 330.667,182.5 330.833,183 331,183.5C 332.011,182.663 333.178,182.33 334.5,182.5C 334.657,183.873 334.49,185.207 334,186.5C 332,187.167 330.667,188.5 330,190.5C 327.453,188.796 325.953,186.463 325.5,183.5C 326.5,183.5 327.5,183.5 328.5,183.5C 327.836,181.133 326.503,179.133 324.5,177.5C 325.5,176.833 326.5,176.167 327.5,175.5C 326.691,173.929 326.357,172.262 326.5,170.5 Z"/></g>
<g><path style="opacity:0.691" fill="#ac9ac5" d="M 335.5,203.5 C 333.329,199.928 331.329,199.928 329.5,203.5C 328.264,204.246 326.93,204.579 325.5,204.5C 325.393,202.097 326.393,200.264 328.5,199C 325.785,198.125 324.452,196.292 324.5,193.5C 327.025,192.108 329.192,192.442 331,194.5C 331.689,193.643 332.522,192.977 333.5,192.5C 335.001,193.752 336.668,194.752 338.5,195.5C 337.395,196.892 336.061,198.059 334.5,199C 338.825,200.645 339.158,202.145 335.5,203.5 Z"/></g>
<g><path style="opacity:0.637" fill="#ad9ac5" d="M 437.5,177.5 C 438.995,177.415 439.995,178.081 440.5,179.5C 440.362,181.638 440.362,183.805 440.5,186C 440.095,186.945 439.428,187.612 438.5,188C 436.687,187.954 435.021,188.12 433.5,188.5C 432.614,189.325 432.281,190.325 432.5,191.5C 436.223,192.524 436.057,193.857 432,195.5C 430.293,197.909 429.46,200.575 429.5,203.5C 431.346,203.222 432.68,203.889 433.5,205.5C 431.063,206.926 428.563,208.259 426,209.5C 425.342,211.108 425.842,212.275 427.5,213C 427.167,213.333 426.833,213.667 426.5,214C 427.624,214.249 428.624,214.749 429.5,215.5C 427.823,217.76 425.657,219.427 423,220.5C 421.082,223.402 421.249,226.069 423.5,228.5C 423.291,229.086 422.957,229.586 422.5,230C 424.085,230.085 425.418,230.251 426.5,230.5C 424.909,232.633 422.909,234.299 420.5,235.5C 420.877,237.824 421.877,238.491 423.5,237.5C 424.833,238.833 424.833,240.167 423.5,241.5C 421.119,243.396 418.619,243.729 416,242.5C 415.692,243.308 415.192,243.975 414.5,244.5C 413.289,243.726 413.289,242.893 414.5,242C 410.896,240.666 409.729,238.166 411,234.5C 412.316,237.028 413.483,237.028 414.5,234.5C 415.192,235.025 415.692,235.692 416,236.5C 416.167,236 416.333,235.5 416.5,235C 413.616,233.09 412.616,230.59 413.5,227.5C 414.425,228.641 415.259,228.641 416,227.5C 417.044,228.623 417.71,229.956 418,231.5C 418.309,230.234 418.809,229.067 419.5,228C 417.363,225.821 417.029,223.321 418.5,220.5C 420.026,223.033 421.026,222.7 421.5,219.5C 421.57,217.334 420.904,217.001 419.5,218.5C 419.167,217.833 418.833,217.167 418.5,216.5C 419.046,214.865 419.38,213.199 419.5,211.5C 420.5,211.5 421.5,211.5 422.5,211.5C 422.351,212.552 422.517,213.552 423,214.5C 423.422,212.645 423.922,210.811 424.5,209C 422.993,205.979 421.993,202.812 421.5,199.5C 423.912,199.244 425.579,200.244 426.5,202.5C 427.498,200.51 428.498,198.51 429.5,196.5C 426.5,195.242 425.5,193.242 426.5,190.5C 427.451,191.326 428.451,191.492 429.5,191C 428.549,190.282 428.383,189.449 429,188.5C 430,188.167 431,187.833 432,187.5C 432.27,184.638 433.104,181.972 434.5,179.5C 436.396,180.639 437.396,179.973 437.5,177.5 Z"/></g>
<g><path style="opacity:0.636" fill="#ac9ac5" d="M 337.5,253.5 C 338.167,253.5 338.5,253.833 338.5,254.5C 338.66,256.153 339.326,257.486 340.5,258.5C 339.588,261.535 339.588,264.535 340.5,267.5C 340.167,268.167 339.833,268.833 339.5,269.5C 337.501,267.507 336.001,265.173 335,262.5C 334.727,264.329 333.893,265.829 332.5,267C 335.109,274.138 334.442,274.305 330.5,267.5C 327.312,268.253 324.646,267.253 322.5,264.5C 323.376,263.749 324.376,263.249 325.5,263C 322.79,261.54 322.124,259.54 323.5,257C 322.368,254.79 320.868,254.29 319,255.5C 317.075,253.915 314.909,252.748 312.5,252C 311.219,249.573 310.219,247.073 309.5,244.5C 310.552,244.649 311.552,244.483 312.5,244C 312.498,240.596 310.665,238.096 307,236.5C 306.383,235.551 306.549,234.718 307.5,234C 305,233.115 302.667,231.948 300.5,230.5C 301.833,229.167 301.833,227.833 300.5,226.5C 302.782,225.1 304.282,225.766 305,228.5C 305.368,227.09 306.201,226.09 307.5,225.5C 308.37,227.407 309.37,229.24 310.5,231C 309.198,232.923 309.365,234.757 311,236.5C 312.912,238.657 314.579,240.991 316,243.5C 316.483,242.552 316.649,241.552 316.5,240.5C 323.846,238.528 325.18,240.528 320.5,246.5C 322.118,248.836 323.952,248.836 326,246.5C 326.288,249.472 325.455,252.139 323.5,254.5C 325.865,258.755 326.865,258.421 326.5,253.5C 327.5,253.5 328.5,253.5 329.5,253.5C 329.215,255.288 329.548,256.955 330.5,258.5C 331.609,259.59 332.609,259.59 333.5,258.5C 332.265,254.961 330.932,251.461 329.5,248C 328.381,246.124 326.714,245.291 324.5,245.5C 324.36,243.876 325.027,242.71 326.5,242C 324.873,239.246 323.373,236.412 322,233.5C 320.989,234.337 319.822,234.67 318.5,234.5C 318.822,232.278 318.155,230.444 316.5,229C 316.957,228.586 317.291,228.086 317.5,227.5C 315.767,224.941 314.267,222.275 313,219.5C 310.731,220.464 308.898,219.798 307.5,217.5C 308.376,216.749 309.376,216.249 310.5,216C 309.874,215.25 309.374,214.416 309,213.5C 307.68,213.201 306.18,213.034 304.5,213C 303.185,211.605 303.519,210.605 305.5,210C 303.74,209.035 303.406,207.868 304.5,206.5C 305.478,206.977 306.311,207.643 307,208.5C 308.011,207.663 309.178,207.33 310.5,207.5C 308.786,211.391 310.12,213.391 314.5,213.5C 315.51,218.03 317.01,222.363 319,226.5C 320.813,225.391 321.646,226.058 321.5,228.5C 327.503,228.747 328.503,230.747 324.5,234.5C 326.73,238.301 329.73,240.468 333.5,241C 331.175,242.881 331.175,244.548 333.5,246C 333.095,246.945 332.428,247.612 331.5,248C 332.794,250.087 333.961,252.254 335,254.5C 335.671,253.748 336.504,253.414 337.5,253.5 Z"/></g>
<g><path style="opacity:0.652" fill="#ac9bc6" d="M 426.5,245.5 C 429.34,245.807 430.174,247.14 429,249.5C 429.654,248.304 430.154,248.304 430.5,249.5C 427.225,254.689 424.559,254.523 422.5,249C 423.347,247.229 424.68,246.063 426.5,245.5 Z"/></g>
<g><path style="opacity:0.671" fill="#ac9ac5" d="M 296.5,248.5 C 298.331,249.052 299.997,249.052 301.5,248.5C 302.123,250.966 302.957,253.299 304,255.5C 304.483,254.552 304.649,253.552 304.5,252.5C 305.5,252.5 306.5,252.5 307.5,252.5C 307.25,255.214 307.083,257.881 307,260.5C 308.174,262.671 310.007,263.671 312.5,263.5C 312.67,264.822 312.337,265.989 311.5,267C 314.052,271.219 317.552,274.386 322,276.5C 322.595,277.899 322.428,279.232 321.5,280.5C 323.5,281.167 325.5,281.833 327.5,282.5C 326.652,283.991 325.319,284.658 323.5,284.5C 320.009,283.043 316.342,282.043 312.5,281.5C 312.343,280.127 312.51,278.793 313,277.5C 314.049,278.517 315.216,278.684 316.5,278C 314.257,275.512 312.257,272.846 310.5,270C 308.527,269.505 306.527,269.338 304.5,269.5C 304.714,267.856 304.38,266.356 303.5,265C 304.471,263.796 305.471,263.296 306.5,263.5C 304.334,258.36 300.667,254.693 295.5,252.5C 296.025,251.808 296.692,251.308 297.5,251C 296.748,250.329 296.414,249.496 296.5,248.5 Z"/></g>
<g><path style="opacity:0.67" fill="#ad9ac5" d="M 402.5,250.5 C 404.942,250.354 405.609,251.187 404.5,253C 407.167,254.333 407.167,255.667 404.5,257C 405.293,258.085 405.96,259.252 406.5,260.5C 405.185,262.316 403.685,263.983 402,265.5C 401.161,268.14 401.661,270.473 403.5,272.5C 401.808,274.359 400.308,276.359 399,278.5C 398.077,276.966 397.577,275.299 397.5,273.5C 398.506,271.163 399.506,268.83 400.5,266.5C 398.141,261.887 398.141,257.22 400.5,252.5C 402.214,253.609 402.881,252.942 402.5,250.5 Z M 402.5,258.5 C 401.883,258.389 401.383,258.056 401,257.5C 400.346,260.803 400.846,261.137 402.5,258.5 Z"/></g>
<g><path style="opacity:0.939" fill="#85ab86" d="M 407.5,358.5 C 407.5,357.833 407.5,357.167 407.5,356.5C 407.5,355.5 407.5,354.5 407.5,353.5C 407.5,349.5 407.5,345.5 407.5,341.5C 407.5,341.167 407.5,340.833 407.5,340.5C 407.5,340.167 407.5,339.833 407.5,339.5C 408.83,333.174 411.497,327.507 415.5,322.5C 416.167,322.5 416.5,322.167 416.5,321.5C 429.822,311.414 443.322,311.081 457,320.5C 457.786,310.793 457.453,301.126 456,291.5C 455.5,290.333 454.667,289.5 453.5,289C 450.243,287.957 446.91,287.457 443.5,287.5C 443.286,285.856 443.62,284.356 444.5,283C 452.846,281.498 461.18,279.998 469.5,278.5C 469.333,307.502 469.5,336.502 470,365.5C 469.954,372.62 473.454,375.62 480.5,374.5C 480.859,376.766 480.192,378.599 478.5,380C 472.143,380.346 465.81,380.846 459.5,381.5C 459.665,377.818 459.499,374.152 459,370.5C 454.132,377.686 447.298,381.353 438.5,381.5C 423.135,380.344 412.802,372.677 407.5,358.5 Z M 434.5,320.5 C 444.745,319.384 451.912,323.384 456,332.5C 456.928,343.24 456.595,353.907 455,364.5C 448.903,373.866 440.736,376.366 430.5,372C 425.424,367.682 422.591,362.182 422,355.5C 420.934,347.006 421.601,338.672 424,330.5C 426.099,325.565 429.599,322.232 434.5,320.5 Z"/></g>
<g><path style="opacity:0.909" fill="#84ab85" d="M 602.5,281.5 C 610.658,280.823 614.158,284.49 613,292.5C 610.774,296.861 607.274,298.361 602.5,297C 598.139,294.774 596.639,291.274 598,286.5C 599.025,284.313 600.525,282.646 602.5,281.5 Z"/></g>
<g><path style="opacity:0.942" fill="#85ab86" d="M 71.5,285.5 C 83.8333,285.5 96.1667,285.5 108.5,285.5C 108.5,287.5 108.5,289.5 108.5,291.5C 100.121,291.047 96.2877,295.047 97,303.5C 96.3333,322.167 96.3333,340.833 97,359.5C 96.7636,367.552 100.597,372.052 108.5,373C 118.448,374.303 128.114,373.303 137.5,370C 141.464,366.073 144.13,361.406 145.5,356C 147.134,355.506 148.801,355.34 150.5,355.5C 150.351,356.552 150.517,357.552 151,358.5C 153.567,354.3 157.067,351.133 161.5,349C 169.635,344.93 177.969,341.43 186.5,338.5C 186.142,334.491 185.642,330.491 185,326.5C 181.677,320.092 176.511,317.925 169.5,320C 166.612,323.647 164.279,327.647 162.5,332C 155.23,334.371 151.73,331.871 152,324.5C 153.031,321.461 154.865,318.961 157.5,317C 169.193,312.377 180.86,312.377 192.5,317C 195.467,319.1 197.3,321.934 198,325.5C 198.106,340.206 198.773,354.873 200,369.5C 202.733,374.507 206.066,374.84 210,370.5C 212.225,374.163 211.392,376.996 207.5,379C 202.583,381.457 197.583,381.791 192.5,380C 188.694,377.218 186.86,373.384 187,368.5C 178.828,380.833 167.994,383.999 154.5,378C 152.622,376.457 151.122,374.624 150,372.5C 149.503,374.81 149.337,377.143 149.5,379.5C 122.833,379.5 96.1667,379.5 69.5,379.5C 69.5,377.833 69.5,376.167 69.5,374.5C 73.4102,374.737 77.0769,373.904 80.5,372C 82.0037,370.509 82.8371,368.676 83,366.5C 83.6667,344.167 83.6667,321.833 83,299.5C 81.7477,293.335 77.9144,290.668 71.5,291.5C 71.5,289.5 71.5,287.5 71.5,285.5 Z M 184.5,344.5 C 186.906,351.843 186.073,359.177 182,366.5C 177.714,372.473 172.214,373.973 165.5,371C 161.479,365.77 161.646,360.604 166,355.5C 171.835,351.142 178.001,347.475 184.5,344.5 Z"/></g>
<g><path style="opacity:0.733" fill="#ac9ac5" d="M 322.5,285.5 C 325.112,286.277 326.945,287.944 328,290.5C 329,289.5 330,288.5 331,287.5C 331.333,290.5 331.667,293.5 332,296.5C 334.062,298.901 335.729,301.567 337,304.5C 338.716,303.448 339.716,304.114 340,306.5C 340.308,305.692 340.808,305.025 341.5,304.5C 342.198,307.269 343.532,309.602 345.5,311.5C 345.291,312.086 344.957,312.586 344.5,313C 340.567,312.313 336.567,311.48 332.5,310.5C 333.093,308.618 333.76,306.785 334.5,305C 332.457,301.747 330.29,298.58 328,295.5C 325.4,296.307 323.066,295.64 321,293.5C 320.329,290.168 321.496,289.001 324.5,290C 323.418,288.67 322.751,287.17 322.5,285.5 Z"/></g>
<g><path style="opacity:0.65" fill="#ac9ac5" d="M 334.5,317.5 C 333.005,317.989 331.671,318.655 330.5,319.5C 327.236,319.274 326.236,317.774 327.5,315C 325.698,313.173 323.532,312.006 321,311.5C 321.437,308.827 320.27,306.66 317.5,305C 315.899,304.727 314.399,304.227 313,303.5C 312.965,301.555 313.131,299.555 313.5,297.5C 315.409,298.348 317.409,298.682 319.5,298.5C 319.93,303.803 322.93,306.136 328.5,305.5C 328.739,307.467 328.406,309.301 327.5,311C 329,311.833 330.167,313 331,314.5C 331.308,313.692 331.808,313.025 332.5,312.5C 333.95,313.85 334.617,315.516 334.5,317.5 Z"/></g>
<g><path style="opacity:0.941" fill="#85ab86" d="M 340.5,328.5 C 340.25,326.326 339.25,324.659 337.5,323.5C 336.833,323.5 336.167,323.5 335.5,323.5C 334.5,323.5 333.5,323.5 332.5,323.5C 330.824,322.817 330.157,321.483 330.5,319.5C 331.671,318.655 333.005,317.989 334.5,317.5C 339.47,316.171 344.47,314.837 349.5,313.5C 350.635,315.707 351.301,318.04 351.5,320.5C 351.34,322.199 351.506,323.866 352,325.5C 352.717,324.956 353.217,324.289 353.5,323.5C 356.857,321.134 360.19,318.801 363.5,316.5C 363.833,316.5 364.167,316.5 364.5,316.5C 366.05,315.559 367.716,314.893 369.5,314.5C 370.167,314.5 370.833,314.5 371.5,314.5C 373.415,314.784 375.081,314.451 376.5,313.5C 377.167,313.5 377.833,313.5 378.5,313.5C 386.495,314.498 392.495,318.498 396.5,325.5C 396.433,326.959 396.766,328.292 397.5,329.5C 397.296,334.276 397.296,339.276 397.5,344.5C 397.5,347.167 397.5,349.833 397.5,352.5C 397.5,355.167 397.5,357.833 397.5,360.5C 397.5,361.5 397.5,362.5 397.5,363.5C 397.198,366.059 397.532,368.393 398.5,370.5C 400.379,374.009 403.379,375.342 407.5,374.5C 407.5,376.167 407.5,377.833 407.5,379.5C 396.833,379.5 386.167,379.5 375.5,379.5C 375.5,378.167 375.5,376.833 375.5,375.5C 377.216,375.371 378.883,375.038 380.5,374.5C 380.833,374.5 381.167,374.5 381.5,374.5C 382.906,374.027 383.573,373.027 383.5,371.5C 384.167,371.5 384.5,371.167 384.5,370.5C 385.487,365.695 385.821,360.695 385.5,355.5C 385.5,350.167 385.5,344.833 385.5,339.5C 385.608,335.753 385.108,332.086 384,328.5C 383.292,327.619 382.458,326.953 381.5,326.5C 381.672,325.508 381.338,324.842 380.5,324.5C 378.413,321.475 375.746,320.475 372.5,321.5C 372.167,321.5 371.833,321.5 371.5,321.5C 370.833,320.167 370.167,320.167 369.5,321.5C 368.833,321.5 368.167,321.5 367.5,321.5C 366.508,321.328 365.842,321.662 365.5,322.5C 364.833,322.5 364.5,322.833 364.5,323.5C 363.075,321.969 362.409,322.302 362.5,324.5C 361.508,324.328 360.842,324.662 360.5,325.5C 358.5,326.167 357.167,327.5 356.5,329.5C 356.5,329.833 356.5,330.167 356.5,330.5C 354.621,331.895 353.621,333.895 353.5,336.5C 353.5,337.5 353.5,338.5 353.5,339.5C 352.53,343.219 352.53,347.219 353.5,351.5C 353.5,352.833 353.5,354.167 353.5,355.5C 352.28,357.05 352.28,358.716 353.5,360.5C 353.146,364.637 353.646,368.637 355,372.5C 357.565,374.179 360.398,374.846 363.5,374.5C 363.5,376.167 363.5,377.833 363.5,379.5C 351.829,379.333 340.162,379.5 328.5,380C 318.365,383.352 312.198,379.852 310,369.5C 302.324,380.533 292.158,383.7 279.5,379C 269.309,367.997 270.642,358.33 283.5,350C 291.791,346.07 300.124,342.237 308.5,338.5C 311.798,324.474 306.465,318.474 292.5,320.5C 290.279,324.449 287.946,328.283 285.5,332C 275.32,332.83 272.82,328.664 278,319.5C 284.429,315.116 291.596,313.116 299.5,313.5C 303.555,313.575 307.555,314.075 311.5,315C 317.41,316.579 320.91,320.412 322,326.5C 322.333,339.833 322.667,353.167 323,366.5C 324.371,373.877 327.871,375.21 333.5,370.5C 335.299,375.309 337.466,375.309 340,370.5C 340.5,356.504 340.667,342.504 340.5,328.5 Z M 367.5,321.5 C 368.167,321.5 368.833,321.5 369.5,321.5C 370.408,323.452 370.241,325.452 369,327.5C 368.685,325.414 368.185,323.414 367.5,321.5 Z M 365.5,322.5 C 368.151,324.461 367.984,326.128 365,327.5C 364.51,326.207 364.343,324.873 364.5,323.5C 364.5,322.833 364.833,322.5 365.5,322.5 Z M 372.5,323.5 C 373.966,324.347 374.8,325.68 375,327.5C 375.377,331.019 375.877,334.519 376.5,338C 375.285,341.463 373.952,344.13 372.5,346C 373.865,352.143 374.698,358.31 375,364.5C 372.975,356.398 370.975,348.398 369,340.5C 370,341.167 371,341.833 372,342.5C 373.046,340.91 374.213,339.41 375.5,338C 374.135,336.318 372.635,336.151 371,337.5C 369,335.5 369,333.5 371,331.5C 371.333,332.167 371.667,332.833 372,333.5C 372.498,330.183 372.665,326.85 372.5,323.5 Z M 377.5,323.5 C 378.258,328.679 378.925,334.012 379.5,339.5C 379.444,340.737 378.944,341.737 378,342.5C 377.5,336.175 377.334,329.842 377.5,323.5 Z M 380.5,324.5 C 381.338,324.842 381.672,325.508 381.5,326.5C 381.779,329.118 382.446,331.618 383.5,334C 382.531,335.758 381.364,336.258 380,335.5C 380.337,331.921 380.504,328.254 380.5,324.5 Z M 366.5,341.5 C 363.718,337.164 362.384,332.497 362.5,327.5C 364.85,331.882 366.183,336.548 366.5,341.5 Z M 367.5,333.5 C 366.297,332.057 365.797,330.391 366,328.5C 367.269,329.905 367.769,331.571 367.5,333.5 Z M 356.5,329.5 C 357.5,329.5 358.5,329.5 359.5,329.5C 360.091,332.94 361.091,336.273 362.5,339.5C 362.167,339.833 361.833,340.167 361.5,340.5C 358.467,339.219 357.467,337.219 358.5,334.5C 357.775,333.133 357.108,331.8 356.5,330.5C 356.5,330.167 356.5,329.833 356.5,329.5 Z M 367.5,333.5 C 368.234,334.878 368.901,336.378 369.5,338C 369,338.5 368.5,339 368,339.5C 367.505,337.527 367.338,335.527 367.5,333.5 Z M 385.5,339.5 C 385.5,344.833 385.5,350.167 385.5,355.5C 384.681,358.305 384.181,361.305 384,364.5C 383.333,354.833 383.333,345.167 384,335.5C 384.21,337.058 384.71,338.391 385.5,339.5 Z M 353.5,336.5 C 354.924,338.515 355.59,340.848 355.5,343.5C 354.655,342.329 353.989,340.995 353.5,339.5C 353.5,338.5 353.5,337.5 353.5,336.5 Z M 355.5,343.5 C 356.882,344.801 358.548,345.634 360.5,346C 359.5,346.333 358.5,346.667 357.5,347C 359.005,349.67 361.005,351.836 363.5,353.5C 363.192,354.308 362.692,354.975 362,355.5C 360.426,354.016 359.093,352.349 358,350.5C 357.536,351.094 357.369,351.761 357.5,352.5C 355.466,351.452 354.133,349.786 353.5,347.5C 354.274,346.289 355.107,346.289 356,347.5C 356.195,346.181 356.028,344.847 355.5,343.5 Z M 308.5,344.5 C 311.954,355.763 308.954,364.93 299.5,372C 286.64,372.837 283.14,367.67 289,356.5C 294.844,351.333 301.344,347.333 308.5,344.5 Z M 376.5,353.5 C 373.937,350.643 373.937,347.643 376.5,344.5C 377.643,347.498 377.643,350.498 376.5,353.5 Z M 378.5,344.5 C 380.532,345.048 381.532,346.381 381.5,348.5C 380.5,348.5 379.5,348.5 378.5,348.5C 378.5,347.167 378.5,345.833 378.5,344.5 Z M 365.5,349.5 C 366.837,350.315 367.837,351.482 368.5,353C 365.444,353.349 364.444,352.182 365.5,349.5 Z M 353.5,351.5 C 355.3,352.895 355.634,354.561 354.5,356.5C 353.893,356.376 353.56,356.043 353.5,355.5C 353.5,354.167 353.5,352.833 353.5,351.5 Z M 376.5,353.5 C 378.281,358.923 378.781,364.589 378,370.5C 376.971,364.877 376.471,359.21 376.5,353.5 Z M 369.5,360.5 C 368.152,359.473 367.652,358.14 368,356.5C 369.188,357.563 369.688,358.897 369.5,360.5 Z M 362.5,357.5 C 364.446,358.254 365.279,359.588 365,361.5C 363.294,360.692 362.461,359.359 362.5,357.5 Z M 353.5,360.5 C 355.722,360.178 357.556,360.845 359,362.5C 361.002,366.342 362.502,370.342 363.5,374.5C 360.398,374.846 357.565,374.179 355,372.5C 353.646,368.637 353.146,364.637 353.5,360.5 Z M 374.5,371.5 C 373.842,372.398 373.176,373.398 372.5,374.5C 371.756,373.009 371.09,371.509 370.5,370C 372.32,369.021 373.487,367.521 374,365.5C 375.689,367.32 375.855,369.32 374.5,371.5 Z M 368.5,372.5 C 367.947,374.657 366.947,374.49 365.5,372C 366.577,371.53 367.577,371.697 368.5,372.5 Z"/></g>
<g><path style="opacity:0.927" fill="#85ab86" d="M 508.5,313.5 C 529.206,311.542 539.206,320.876 538.5,341.5C 523.833,341.5 509.167,341.5 494.5,341.5C 492.978,353.451 496.644,363.284 505.5,371C 510.57,373.424 515.903,374.091 521.5,373C 526.225,370.934 530.392,368.1 534,364.5C 535.775,365.27 537.275,366.437 538.5,368C 524.265,383.434 508.265,385.434 490.5,374C 483.278,366.883 479.611,358.217 479.5,348C 480.412,328.936 490.079,317.436 508.5,313.5 Z M 507.5,320.5 C 515.059,319.28 520.559,321.947 524,328.5C 525.357,332.143 524.19,334.31 520.5,335C 512.507,335.5 504.507,335.666 496.5,335.5C 497.526,328.406 501.193,323.406 507.5,320.5 Z"/></g>
<g><path style="opacity:0.93" fill="#85ab86" d="M 623.5,374.5 C 623.5,376.167 623.5,377.833 623.5,379.5C 611.5,379.5 599.5,379.5 587.5,379.5C 587.5,377.833 587.5,376.167 587.5,374.5C 593.019,375.403 596.852,373.403 599,368.5C 599.928,354.444 599.595,340.444 598,326.5C 595.275,322.832 592.775,322.832 590.5,326.5C 588.894,327.077 587.228,327.41 585.5,327.5C 581.629,326.917 577.962,326.084 574.5,325C 570.212,327.292 567.378,330.792 566,335.5C 562.777,346.282 561.777,357.282 563,368.5C 564.088,373.634 567.254,375.634 572.5,374.5C 572.5,376.167 572.5,377.833 572.5,379.5C 561.5,379.5 550.5,379.5 539.5,379.5C 539.5,377.833 539.5,376.167 539.5,374.5C 543.684,375.296 546.85,373.963 549,370.5C 549.667,356.833 549.667,343.167 549,329.5C 547.077,325.706 543.91,324.039 539.5,324.5C 539.141,322.234 539.808,320.401 541.5,319C 548.123,317.876 554.623,316.376 561,314.5C 561.749,319.489 562.415,324.489 563,329.5C 567.602,318.62 575.769,313.453 587.5,314C 589.58,314.789 591.414,315.956 593,317.5C 599.471,315.973 605.971,314.639 612.5,313.5C 612.333,331.836 612.5,350.17 613,368.5C 614.691,373.435 618.191,375.435 623.5,374.5 Z"/></g>
<g><path style="opacity:0.922" fill="#85ab86" d="M 623.5,374.5 C 619.456,363.801 622.456,355.634 632.5,350C 640.791,346.07 649.124,342.237 657.5,338.5C 660.798,324.474 655.465,318.474 641.5,320.5C 639.279,324.449 636.946,328.283 634.5,332C 624.32,332.83 621.82,328.664 627,319.5C 633.429,315.116 640.596,313.116 648.5,313.5C 654.429,313.452 660.096,314.619 665.5,317C 668.231,319.626 670.064,322.793 671,326.5C 671.067,341.221 671.734,355.888 673,370.5C 676.123,374.434 679.29,374.434 682.5,370.5C 684.124,371.869 684.624,373.536 684,375.5C 677.101,382.223 669.767,382.889 662,377.5C 661,374.833 660,372.167 659,369.5C 651.324,380.533 641.158,383.7 628.5,379C 626.341,377.941 624.674,376.441 623.5,374.5 Z M 657.5,344.5 C 660.954,355.763 657.954,364.93 648.5,372C 635.64,372.837 632.14,367.67 638,356.5C 643.844,351.333 650.344,347.333 657.5,344.5 Z"/></g>
<g><path style="opacity:0.906" fill="#85ab86" d="M 202.5,314.5 C 213.5,314.5 224.5,314.5 235.5,314.5C 235.5,316.5 235.5,318.5 235.5,320.5C 233.473,320.338 231.473,320.505 229.5,321C 228.426,321.739 227.759,322.739 227.5,324C 232.187,337.877 237.021,351.71 242,365.5C 247.391,353.327 252.391,340.994 257,328.5C 259.173,321.506 256.673,318.839 249.5,320.5C 249.5,318.5 249.5,316.5 249.5,314.5C 257.833,314.5 266.167,314.5 274.5,314.5C 274.5,316.5 274.5,318.5 274.5,320.5C 272.071,320.585 270.071,321.585 268.5,323.5C 259.972,342.417 251.639,361.417 243.5,380.5C 240.628,381.783 237.795,381.783 235,380.5C 227.529,361.753 219.862,343.086 212,324.5C 209.761,321.038 206.594,319.705 202.5,320.5C 202.5,318.5 202.5,316.5 202.5,314.5 Z"/></g>
<g><path style="opacity:0.601" fill="#ac9ac5" d="M 371.5,321.5 C 371.328,322.492 371.662,323.158 372.5,323.5C 372.5,322.833 372.5,322.167 372.5,321.5C 375.746,320.475 378.413,321.475 380.5,324.5C 380.504,328.254 380.337,331.921 380,335.5C 381.364,336.258 382.531,335.758 383.5,334C 382.446,331.618 381.779,329.118 381.5,326.5C 382.458,326.953 383.292,327.619 384,328.5C 385.108,332.086 385.608,335.753 385.5,339.5C 384.71,338.391 384.21,337.058 384,335.5C 383.333,345.167 383.333,354.833 384,364.5C 384.181,361.305 384.681,358.305 385.5,355.5C 385.821,360.695 385.487,365.695 384.5,370.5C 383.89,368.15 383.556,368.483 383.5,371.5C 383.573,373.027 382.906,374.027 381.5,374.5C 381.167,358.5 380.833,358.5 380.5,374.5C 378.883,375.038 377.216,375.371 375.5,375.5C 375.5,376.833 375.5,378.167 375.5,379.5C 374.685,378.571 373.852,377.571 373,376.5C 372.517,377.448 372.351,378.448 372.5,379.5C 370.857,379.52 369.524,378.853 368.5,377.5C 367.304,377.846 367.304,378.346 368.5,379C 367.552,379.483 366.552,379.649 365.5,379.5C 365.598,377.447 364.931,375.78 363.5,374.5C 362.502,370.342 361.002,366.342 359,362.5C 357.556,360.845 355.722,360.178 353.5,360.5C 352.28,358.716 352.28,357.05 353.5,355.5C 353.56,356.043 353.893,356.376 354.5,356.5C 355.634,354.561 355.3,352.895 353.5,351.5C 352.53,347.219 352.53,343.219 353.5,339.5C 353.989,340.995 354.655,342.329 355.5,343.5C 355.59,340.848 354.924,338.515 353.5,336.5C 353.621,333.895 354.621,331.895 356.5,330.5C 357.108,331.8 357.775,333.133 358.5,334.5C 357.467,337.219 358.467,339.219 361.5,340.5C 361.833,340.167 362.167,339.833 362.5,339.5C 361.091,336.273 360.091,332.94 359.5,329.5C 358.5,329.5 357.5,329.5 356.5,329.5C 357.167,327.5 358.5,326.167 360.5,325.5C 361.492,325.672 362.158,325.338 362.5,324.5C 362.409,322.302 363.075,321.969 364.5,323.5C 364.343,324.873 364.51,326.207 365,327.5C 367.984,326.128 368.151,324.461 365.5,322.5C 365.842,321.662 366.508,321.328 367.5,321.5C 368.185,323.414 368.685,325.414 369,327.5C 370.241,325.452 370.408,323.452 369.5,321.5C 370.167,320.167 370.833,320.167 371.5,321.5 Z M 367.5,321.5 C 368.167,321.5 368.833,321.5 369.5,321.5C 370.408,323.452 370.241,325.452 369,327.5C 368.685,325.414 368.185,323.414 367.5,321.5 Z M 365.5,322.5 C 368.151,324.461 367.984,326.128 365,327.5C 364.51,326.207 364.343,324.873 364.5,323.5C 364.5,322.833 364.833,322.5 365.5,322.5 Z M 372.5,323.5 C 372.665,326.85 372.498,330.183 372,333.5C 371.667,332.833 371.333,332.167 371,331.5C 369,333.5 369,335.5 371,337.5C 372.635,336.151 374.135,336.318 375.5,338C 374.213,339.41 373.046,340.91 372,342.5C 371,341.833 370,341.167 369,340.5C 370.975,348.398 372.975,356.398 375,364.5C 374.698,358.31 373.865,352.143 372.5,346C 373.952,344.13 375.285,341.463 376.5,338C 375.877,334.519 375.377,331.019 375,327.5C 374.8,325.68 373.966,324.347 372.5,323.5 Z M 377.5,323.5 C 377.334,329.842 377.5,336.175 378,342.5C 378.944,341.737 379.444,340.737 379.5,339.5C 378.925,334.012 378.258,328.679 377.5,323.5 Z M 366.5,341.5 C 366.183,336.548 364.85,331.882 362.5,327.5C 362.384,332.497 363.718,337.164 366.5,341.5 Z M 367.5,333.5 C 367.769,331.571 367.269,329.905 366,328.5C 365.797,330.391 366.297,332.057 367.5,333.5 Z M 367.5,333.5 C 367.338,335.527 367.505,337.527 368,339.5C 368.5,339 369,338.5 369.5,338C 368.901,336.378 368.234,334.878 367.5,333.5 Z M 355.5,343.5 C 356.882,344.801 358.548,345.634 360.5,346C 359.5,346.333 358.5,346.667 357.5,347C 359.005,349.67 361.005,351.836 363.5,353.5C 363.192,354.308 362.692,354.975 362,355.5C 360.426,354.016 359.093,352.349 358,350.5C 357.536,351.094 357.369,351.761 357.5,352.5C 355.466,351.452 354.133,349.786 353.5,347.5C 354.274,346.289 355.107,346.289 356,347.5C 356.195,346.181 356.028,344.847 355.5,343.5 Z M 376.5,353.5 C 377.643,350.498 377.643,347.498 376.5,344.5C 373.937,347.643 373.937,350.643 376.5,353.5 Z M 378.5,344.5 C 378.5,345.833 378.5,347.167 378.5,348.5C 379.5,348.5 380.5,348.5 381.5,348.5C 381.532,346.381 380.532,345.048 378.5,344.5 Z M 365.5,349.5 C 364.444,352.182 365.444,353.349 368.5,353C 367.837,351.482 366.837,350.315 365.5,349.5 Z M 376.5,353.5 C 376.471,359.21 376.971,364.877 378,370.5C 378.781,364.589 378.281,358.923 376.5,353.5 Z M 369.5,360.5 C 369.688,358.897 369.188,357.563 368,356.5C 367.652,358.14 368.152,359.473 369.5,360.5 Z M 362.5,357.5 C 362.461,359.359 363.294,360.692 365,361.5C 365.279,359.588 364.446,358.254 362.5,357.5 Z M 374.5,371.5 C 375.855,369.32 375.689,367.32 374,365.5C 373.487,367.521 372.32,369.021 370.5,370C 371.09,371.509 371.756,373.009 372.5,374.5C 373.176,373.398 373.842,372.398 374.5,371.5 Z M 368.5,372.5 C 367.577,371.697 366.577,371.53 365.5,372C 366.947,374.49 367.947,374.657 368.5,372.5 Z"/></g>
<g><path style="opacity:0.633" fill="#ac9ac4" d="M 332.5,323.5 C 333.5,323.5 334.5,323.5 335.5,323.5C 336.167,324.833 336.833,324.833 337.5,323.5C 339.25,324.659 340.25,326.326 340.5,328.5C 338.199,327.94 335.866,327.44 333.5,327C 332.663,325.989 332.33,324.822 332.5,323.5 Z"/></g>
<g><path style="opacity:0.929" fill="#9494a6" d="M 179.5,384.5 C 185.442,383.647 188.442,386.313 188.5,392.5C 186.046,402.326 180.88,404.326 173,398.5C 172.333,395.833 172.333,393.167 173,390.5C 175.063,388.266 177.229,386.266 179.5,384.5 Z"/></g>
<g><path style="opacity:0.922" fill="#9494a6" d="M 473.5,384.5 C 480.249,382.915 483.249,385.582 482.5,392.5C 482.114,397.562 479.448,400.895 474.5,402.5C 467.498,400.497 465.332,396.163 468,389.5C 469.812,387.7 471.645,386.033 473.5,384.5 Z"/></g>
<g><path style="opacity:0.924" fill="#9494a6" d="M 326.5,404.5 C 335.791,403.132 341.791,406.799 344.5,415.5C 341.593,415.425 338.927,414.591 336.5,413C 330.309,411.757 326.309,414.091 324.5,420C 325.586,428.542 328.42,436.375 333,443.5C 334.667,448.5 336.333,453.5 338,458.5C 339.613,466.77 338.28,474.437 334,481.5C 328.37,487.215 321.536,489.048 313.5,487C 302.296,482.082 297.13,473.582 298,461.5C 300.873,456.652 305.04,453.652 310.5,452.5C 310.33,453.822 310.663,454.989 311.5,456C 305.785,461.747 304.952,468.247 309,475.5C 312.456,479.738 316.622,480.571 321.5,478C 327.076,472.124 328.576,465.291 326,457.5C 322.61,448.386 318.943,439.386 315,430.5C 310.68,417.893 314.514,409.227 326.5,404.5 Z"/></g>
<g><path style="opacity:0.925" fill="#9494a6" d="M 234.5,408.5 C 239.127,408.573 243.46,409.74 247.5,412C 248.786,414.022 249.786,416.189 250.5,418.5C 249.452,420.456 248.952,422.456 249,424.5C 251.916,422.987 254.582,423.32 257,425.5C 257.627,429.783 257.127,433.949 255.5,438C 255.89,446.468 259.556,448.801 266.5,445C 278.787,436.206 291.454,428.04 304.5,420.5C 305.91,420.868 306.91,421.701 307.5,423C 305.539,425.963 303.206,428.629 300.5,431C 291.473,437.182 282.806,443.849 274.5,451C 268.353,454.941 261.687,456.608 254.5,456C 249.95,453.117 246.45,449.284 244,444.5C 238.132,452.017 230.466,456.684 221,458.5C 210.766,458.431 206.1,453.431 207,443.5C 208.639,440.258 209.639,436.924 210,433.5C 203.407,445.768 194.907,456.601 184.5,466C 174.263,472.813 166.43,470.646 161,459.5C 160.333,456.5 160.333,453.5 161,450.5C 163.92,438.986 166.754,427.486 169.5,416C 170.5,415.333 171.5,415.333 172.5,416C 176.106,418.58 178.44,421.913 179.5,426C 176.401,436.616 173.735,447.283 171.5,458C 172,458.167 172.5,458.333 173,458.5C 178.382,455.789 183.215,452.289 187.5,448C 195.381,439.617 203.714,431.784 212.5,424.5C 213.251,425.376 213.751,426.376 214,427.5C 218.5,422.333 223,417.167 227.5,412C 229.925,410.787 232.259,409.621 234.5,408.5 Z M 239.5,417.5 C 239.133,420.704 239.633,424.038 241,427.5C 241.833,428.333 242.667,429.167 243.5,430C 238.867,435.635 233.867,440.968 228.5,446C 224.747,447.989 220.747,448.822 216.5,448.5C 220.06,435.016 227.727,424.682 239.5,417.5 Z"/></g>
<g><path style="opacity:0.932" fill="#9494a6" d="M 463.5,415.5 C 468.997,416.759 472.663,420.092 474.5,425.5C 471.119,435.476 468.453,445.643 466.5,456C 466.833,456.833 467.167,457.667 467.5,458.5C 471.578,456.586 475.245,454.086 478.5,451C 487.726,442.529 496.726,433.862 505.5,425C 506.635,424.251 507.635,424.417 508.5,425.5C 501.242,440.201 491.908,453.368 480.5,465C 476.333,466.833 472.167,468.667 468,470.5C 456.943,466.724 452.943,459.058 456,447.5C 459.134,436.964 461.634,426.297 463.5,415.5 Z"/></g>
<g><path style="opacity:0.938" fill="#9494a6" d="M 365.5,417.5 C 368.602,417.154 371.435,417.821 374,419.5C 374.667,423.5 374.667,427.5 374,431.5C 372.801,437.95 371.467,444.283 370,450.5C 374.401,442.201 379.901,434.701 386.5,428C 387.833,427.333 389.167,427.333 390.5,428C 392.516,430.289 394.849,430.789 397.5,429.5C 398.167,429.833 398.833,430.167 399.5,430.5C 400.326,432.959 400.993,435.459 401.5,438C 400.377,443.536 399.543,449.036 399,454.5C 404.593,448.904 410.76,444.07 417.5,440C 422.337,439.917 426.337,441.751 429.5,445.5C 430.005,454.599 431.171,463.599 433,472.5C 434.447,476.975 437.28,478.308 441.5,476.5C 441.649,483.483 438.316,485.983 431.5,484C 426.027,481.252 422.86,476.752 422,470.5C 420.955,463.875 420.289,457.208 420,450.5C 413.461,456.708 406.627,462.541 399.5,468C 391.537,468.159 387.204,464.159 386.5,456C 387.755,451.22 388.255,446.387 388,441.5C 380.845,449.805 374.678,458.805 369.5,468.5C 367.167,470.5 364.833,472.5 362.5,474.5C 358.325,473.008 356.325,470.008 356.5,465.5C 359.187,449.423 362.187,433.423 365.5,417.5 Z"/></g>
<g><path style="opacity:0.939" fill="#9494a6" d="M 513.5,417.5 C 516.602,417.154 519.435,417.821 522,419.5C 522.667,423.5 522.667,427.5 522,431.5C 520.801,437.95 519.467,444.283 518,450.5C 522.401,442.201 527.901,434.701 534.5,428C 535.833,427.333 537.167,427.333 538.5,428C 540.516,430.289 542.849,430.789 545.5,429.5C 546.167,429.833 546.833,430.167 547.5,430.5C 548.326,432.959 548.993,435.459 549.5,438C 548.377,443.536 547.543,449.036 547,454.5C 552.593,448.904 558.76,444.07 565.5,440C 570.337,439.917 574.337,441.751 577.5,445.5C 578.063,454.587 579.23,463.587 581,472.5C 582.447,476.975 585.28,478.308 589.5,476.5C 589.649,483.483 586.316,485.983 579.5,484C 574.073,481.218 570.907,476.718 570,470.5C 569.028,463.865 568.361,457.199 568,450.5C 561.461,456.708 554.627,462.541 547.5,468C 539.537,468.159 535.204,464.159 534.5,456C 535.933,451.243 536.433,446.41 536,441.5C 528.845,449.805 522.678,458.805 517.5,468.5C 515.167,470.5 512.833,472.5 510.5,474.5C 506.325,473.008 504.325,470.008 504.5,465.5C 507.504,449.486 510.504,433.486 513.5,417.5 Z"/></g>
</svg>
